<?xml version="1.0" standalone="no"?>
<!DOCTYPE svg PUBLIC "-//W3C//DTD SVG 1.1//EN"
 "http://www.w3.org/Graphics/SVG/1.1/DTD/svg11.dtd">
<!-- Created with svg_stack (http://github.com/astraw/svg_stack) -->
<svg xmlns:sodipodi="http://sodipodi.sourceforge.net/DTD/sodipodi-0.dtd" xmlns="http://www.w3.org/2000/svg" version="1.1" width="110.0" height="103.0">
  <defs/>
  <g id="id0:id0" transform="matrix(1.25,0,0,1.25,0.0,0.0)"><g transform="translate(0.000000,82.400000) scale(0.040000,-0.040000)" fill="#cbced4" stroke="none">
<path d="M1516 2045 c-10 -8 -80 -49 -155 -91 -75 -43 -139 -82 -143 -88 -4 -6 -8 -120 -8 -253 l0 -243 -121 0 c-142 0 -175 -11 -208 -70 -12 -22 -27 -40 -32 -40 -5 0 -21 -11 -34 -25 -23 -22 -25 -32 -25 -117 0 -103 9 -127 60 -153 28 -14 48 -50 36 -63 -4 -3 -19 7 -34 21 l-28 27 -177 0 -177 0 -54 -57 c-166 -178 -346 -379 -346 -386 0 -16 32 -19 49 -3 10 9 21 16 24 16 4 0 6 -102 5 -227 l-3 -228 -73 -3 c-69 -3 -73 -4 -70 -25 l3 -22 1075 -3 c591 -1 1085 0 1098 3 13 3 22 13 22 25 0 18 -7 20 -65 20 l-65 0 0 859 0 859 -242 141 c-146 85 -251 141 -267 141 -14 0 -35 -7 -45 -15z m243 -135 c105 -60 208 -121 231 -135 l40 -26 -2 -842 -3 -842 -207 -3 -208 -2 0 413 c0 308 -3 416 -12 425 -7 7 -34 12 -60 12 l-49 0 15 27 c12 24 19 27 57 25 77 -4 99 31 99 156 0 86 -1 91 -30 122 -38 41 -42 105 -8 151 21 28 21 32 7 57 -29 52 -119 34 -119 -23 0 -12 9 -34 21 -48 15 -20 19 -38 17 -69 -4 -53 -18 -57 -43 -11 -29 53 -74 73 -168 73 l-77 0 2 237 3 237 145 87 c80 48 148 88 152 88 4 1 92 -48 197 -109z m-161 -487 c5 -17 -26 -29 -40 -15 -6 6 -7 15 -3 22 9 14 37 9 43 -7z m-143 -128 c24 -23 25 -28 25 -175 l0 -152 -29 -29 -29 -29 -139 -2 c-76 -1 -181 -1 -233 1 -87 2 -97 5 -117 27 -22 24 -23 34 -23 175 0 145 6 183 34 201 6 4 118 8 249 8 l238 0 24 -25z m120 -76 c4 -6 13 -8 20 -5 18 6 25 -25 25 -112 0 -57 -3 -74 -16 -79 -26 -10 -35 17 -32 95 2 39 0 72 -4 72 -5 0 -8 -36 -8 -79 0 -70 3 -82 21 -95 l22 -15 -24 1 c-48 3 -59 24 -59 111 0 61 4 85 17 99 18 21 29 23 38 7z m-705 -104 c0 -83 -3 -105 -14 -105 -8 0 -17 7 -20 16 -10 26 -7 154 4 175 22 40 30 17 30 -86z m31 -312 c46 -54 114 -132 151 -174 38 -42 68 -79 68 -82 0 -4 -59 -7 -132 -7 l-131 0 -72 75 c-39 42 -69 77 -68 79 2 2 -16 21 -41 44 -24 22 -42 42 -40 44 2 2 -19 26 -46 53 -28 27 -50 53 -50 57 0 4 62 8 139 8 l138 0 84 -97z m-278 -70 l137 -151 0 -261 0 -261 -285 0 -285 0 0 263 0 262 138 152 c75 84 142 151 147 150 6 -1 72 -70 148 -154z m945 -270 l-3 -408 -155 -3 c-85 -2 -170 0 -187 3 l-33 6 0 239 0 240 -107 121 c-162 183 -162 183 -163 197 0 9 71 12 325 12 l325 0 -2 -407z m-743 37 c4 -6 68 -10 161 -10 l154 0 0 -215 0 -215 -165 2 -166 3 -2 223 c-2 205 1 239 18 212z"/>
<path d="M1020 1192 c-28 -22 -22 -65 11 -83 52 -28 105 46 59 83 -12 10 -28 18 -35 18 -7 0 -23 -8 -35 -18z"/>
<path d="M1317 1192 c-23 -26 -21 -58 5 -76 29 -21 51 -20 71 2 22 24 21 55 -1 75 -24 22 -55 21 -75 -1z"/>
<path d="M1256 1035 c-21 -32 -70 -34 -103 -3 -29 27 -52 13 -33 -21 13 -25 48 -41 90 -41 38 0 96 50 87 73 -9 24 -22 21 -41 -8z"/>
<path d="M462 430 c0 -19 2 -27 5 -17 2 9 2 25 0 35 -3 9 -5 1 -5 -18z"/>
<path d="M492 430 c0 -19 2 -27 5 -17 2 9 2 25 0 35 -3 9 -5 1 -5 -18z"/>
<path d="M360 390 c0 -5 5 -10 11 -10 5 0 7 5 4 10 -3 6 -8 10 -11 10 -2 0 -4 -4 -4 -10z"/>
<path d="M585 390 c-3 -5 -1 -10 4 -10 6 0 11 5 11 10 0 6 -2 10 -4 10 -3 0 -8 -4 -11 -10z"/>
<path d="M366 342 c-2 -4 12 -6 32 -4 62 6 69 10 20 11 -26 0 -49 -3 -52 -7z"/>
<path d="M523 343 c15 -2 39 -2 55 0 15 2 2 4 -28 4 -30 0 -43 -2 -27 -4z"/>
<path d="M462 300 c0 -19 2 -27 5 -17 2 9 2 25 0 35 -3 9 -5 1 -5 -18z"/>
<path d="M491 314 c0 -11 3 -14 6 -6 3 7 2 16 -1 19 -3 4 -6 -2 -5 -13z"/>
<path d="M367 248 c2 -5 22 -8 43 -8 21 0 41 3 43 8 3 4 -17 7 -43 7 -26 0 -46 -3 -43 -7z"/>
<path d="M507 248 c2 -5 22 -8 43 -8 21 0 41 3 43 8 3 4 -17 7 -43 7 -26 0 -46 -3 -43 -7z"/>
<path d="M163 1976 c-57 -27 -106 -84 -123 -145 -38 -135 -8 -311 64 -373 60 -52 96 -63 211 -63 86 0 117 4 142 18 104 56 145 136 145 282 0 114 -25 187 -82 239 -60 54 -99 66 -209 66 -80 0 -104 -4 -148 -24z m310 -19 c89 -53 122 -135 114 -285 -5 -106 -20 -150 -65 -198 -47 -51 -88 -67 -183 -72 -142 -7 -220 29 -269 124 -21 41 -26 66 -28 153 -5 124 8 175 55 231 59 68 96 81 234 76 84 -2 103 -7 142 -29z"/>
<path d="M245 1881 c-53 -32 -68 -67 -73 -162 -5 -91 6 -143 36 -175 65 -71 190 -53 232 31 8 17 16 67 18 111 5 100 -18 162 -70 194 -41 25 -103 26 -143 1z m161 -36 c37 -41 50 -112 39 -198 -10 -70 -27 -101 -69 -121 -42 -20 -76 -20 -122 -1 -49 20 -73 78 -74 171 0 79 16 128 52 160 32 30 47 34 98 29 36 -4 51 -12 76 -40z"/>
<path d="M820 1968 c-42 -23 -73 -48 -97 -80 -19 -27 -31 -48 -26 -47 4 0 24 22 44 48 48 63 110 92 209 98 76 5 186 -9 203 -26 6 -6 3 -24 -8 -46 -15 -34 -20 -36 -48 -31 -121 24 -165 17 -220 -33 -41 -37 -57 -83 -57 -163 0 -81 16 -124 59 -161 28 -23 42 -27 96 -27 70 0 75 5 75 70 0 61 -7 70 -54 70 -24 0 -45 2 -47 4 -3 3 -3 23 -1 46 l4 41 107 -3 106 -3 0 -145 0 -145 -29 -14 c-16 -7 -74 -16 -131 -18 -212 -11 -303 63 -324 265 -7 67 -9 70 -10 27 -1 -64 23 -158 51 -199 33 -45 56 -63 118 -87 48 -19 68 -21 165 -16 61 3 125 12 143 19 l32 12 0 158 0 158 -119 0 -119 0 -4 -42 c-7 -62 4 -78 48 -71 42 7 54 -5 54 -57 0 -57 -10 -64 -82 -57 -55 5 -66 9 -90 38 -44 52 -51 186 -13 259 38 73 114 89 255 55 22 -5 27 -1 43 38 10 24 15 50 12 58 -9 23 -86 39 -189 39 -87 0 -99 -3 -156 -32z"/>
<path d="M686 1815 c-3 -9 -6 -29 -5 -43 1 -22 3 -19 10 12 10 40 6 60 -5 31z"/>
</g>
</g>
  <g id="id1:id1" transform="matrix(1.25,0,0,1.25,0.0,0.0)"><g transform="translate(0.000000,82.400000) scale(0.040000,-0.040000)" fill="#b5bcc9" stroke="none">
<path d="M1516 2045 c-10 -8 -80 -49 -155 -91 -75 -43 -139 -82 -143 -88 -4 -6 -8 -120 -8 -253 l0 -243 -121 0 c-142 0 -175 -11 -208 -70 -12 -22 -27 -40 -32 -40 -5 0 -21 -11 -34 -25 -23 -22 -25 -32 -25 -117 0 -103 9 -127 60 -153 28 -14 48 -50 36 -63 -4 -3 -19 7 -34 21 l-28 27 -177 0 -177 0 -54 -57 c-166 -178 -346 -379 -346 -386 0 -16 32 -19 49 -3 10 9 21 16 24 16 4 0 6 -102 5 -227 l-3 -228 -73 -3 c-69 -3 -73 -4 -70 -25 l3 -22 1075 -3 c591 -1 1085 0 1098 3 13 3 22 13 22 25 0 18 -7 20 -65 20 l-65 0 0 859 0 859 -242 141 c-146 85 -251 141 -267 141 -14 0 -35 -7 -45 -15z m243 -135 c105 -60 208 -121 231 -135 l40 -26 -2 -842 -3 -842 -207 -3 -208 -2 0 413 c0 308 -3 416 -12 425 -7 7 -34 12 -60 12 l-49 0 15 27 c12 24 19 27 57 25 77 -4 99 31 99 156 0 86 -1 91 -30 122 -38 41 -42 105 -8 151 21 28 21 32 7 57 -29 52 -119 34 -119 -23 0 -12 9 -34 21 -48 15 -20 19 -38 17 -69 -4 -53 -18 -57 -43 -11 -29 53 -74 73 -168 73 l-77 0 2 237 3 237 145 87 c80 48 148 88 152 88 4 1 92 -48 197 -109z m-161 -487 c5 -17 -26 -29 -40 -15 -6 6 -7 15 -3 22 9 14 37 9 43 -7z m-143 -128 c24 -23 25 -28 25 -175 l0 -152 -29 -29 -29 -29 -139 -2 c-76 -1 -181 -1 -233 1 -87 2 -97 5 -117 27 -22 24 -23 34 -23 175 0 145 6 183 34 201 6 4 118 8 249 8 l238 0 24 -25z m120 -76 c4 -6 13 -8 20 -5 18 6 25 -25 25 -112 0 -57 -3 -74 -16 -79 -26 -10 -35 17 -32 95 2 39 0 72 -4 72 -5 0 -8 -36 -8 -79 0 -70 3 -82 21 -95 l22 -15 -24 1 c-48 3 -59 24 -59 111 0 61 4 85 17 99 18 21 29 23 38 7z m-705 -104 c0 -83 -3 -105 -14 -105 -8 0 -17 7 -20 16 -10 26 -7 154 4 175 22 40 30 17 30 -86z m31 -312 c46 -54 114 -132 151 -174 38 -42 68 -79 68 -82 0 -4 -59 -7 -132 -7 l-131 0 -72 75 c-39 42 -69 77 -68 79 2 2 -16 21 -41 44 -24 22 -42 42 -40 44 2 2 -19 26 -46 53 -28 27 -50 53 -50 57 0 4 62 8 139 8 l138 0 84 -97z m-278 -70 l137 -151 0 -261 0 -261 -285 0 -285 0 0 263 0 262 138 152 c75 84 142 151 147 150 6 -1 72 -70 148 -154z m945 -270 l-3 -408 -155 -3 c-85 -2 -170 0 -187 3 l-33 6 0 239 0 240 -107 121 c-162 183 -162 183 -163 197 0 9 71 12 325 12 l325 0 -2 -407z m-743 37 c4 -6 68 -10 161 -10 l154 0 0 -215 0 -215 -165 2 -166 3 -2 223 c-2 205 1 239 18 212z"/>
<path d="M1020 1192 c-28 -22 -22 -65 11 -83 52 -28 105 46 59 83 -12 10 -28 18 -35 18 -7 0 -23 -8 -35 -18z"/>
<path d="M1317 1192 c-23 -26 -21 -58 5 -76 29 -21 51 -20 71 2 22 24 21 55 -1 75 -24 22 -55 21 -75 -1z"/>
<path d="M1256 1035 c-21 -32 -70 -34 -103 -3 -29 27 -52 13 -33 -21 13 -25 48 -41 90 -41 38 0 96 50 87 73 -9 24 -22 21 -41 -8z"/>
<path d="M462 430 c0 -19 2 -27 5 -17 2 9 2 25 0 35 -3 9 -5 1 -5 -18z"/>
<path d="M492 430 c0 -19 2 -27 5 -17 2 9 2 25 0 35 -3 9 -5 1 -5 -18z"/>
<path d="M360 390 c0 -5 5 -10 11 -10 5 0 7 5 4 10 -3 6 -8 10 -11 10 -2 0 -4 -4 -4 -10z"/>
<path d="M585 390 c-3 -5 -1 -10 4 -10 6 0 11 5 11 10 0 6 -2 10 -4 10 -3 0 -8 -4 -11 -10z"/>
<path d="M366 342 c-2 -4 12 -6 32 -4 62 6 69 10 20 11 -26 0 -49 -3 -52 -7z"/>
<path d="M523 343 c15 -2 39 -2 55 0 15 2 2 4 -28 4 -30 0 -43 -2 -27 -4z"/>
<path d="M462 300 c0 -19 2 -27 5 -17 2 9 2 25 0 35 -3 9 -5 1 -5 -18z"/>
<path d="M491 314 c0 -11 3 -14 6 -6 3 7 2 16 -1 19 -3 4 -6 -2 -5 -13z"/>
<path d="M367 248 c2 -5 22 -8 43 -8 21 0 41 3 43 8 3 4 -17 7 -43 7 -26 0 -46 -3 -43 -7z"/>
<path d="M507 248 c2 -5 22 -8 43 -8 21 0 41 3 43 8 3 4 -17 7 -43 7 -26 0 -46 -3 -43 -7z"/>
<path d="M163 1976 c-57 -27 -106 -84 -123 -145 -38 -135 -8 -311 64 -373 60 -52 96 -63 211 -63 86 0 117 4 142 18 104 56 145 136 145 282 0 114 -25 187 -82 239 -60 54 -99 66 -209 66 -80 0 -104 -4 -148 -24z m310 -19 c89 -53 122 -135 114 -285 -5 -106 -20 -150 -65 -198 -47 -51 -88 -67 -183 -72 -142 -7 -220 29 -269 124 -21 41 -26 66 -28 153 -5 124 8 175 55 231 59 68 96 81 234 76 84 -2 103 -7 142 -29z"/>
<path d="M245 1881 c-53 -32 -68 -67 -73 -162 -5 -91 6 -143 36 -175 65 -71 190 -53 232 31 8 17 16 67 18 111 5 100 -18 162 -70 194 -41 25 -103 26 -143 1z m161 -36 c37 -41 50 -112 39 -198 -10 -70 -27 -101 -69 -121 -42 -20 -76 -20 -122 -1 -49 20 -73 78 -74 171 0 79 16 128 52 160 32 30 47 34 98 29 36 -4 51 -12 76 -40z"/>
<path d="M820 1968 c-42 -23 -73 -48 -97 -80 -19 -27 -31 -48 -26 -47 4 0 24 22 44 48 48 63 110 92 209 98 76 5 186 -9 203 -26 6 -6 3 -24 -8 -46 -15 -34 -20 -36 -48 -31 -121 24 -165 17 -220 -33 -41 -37 -57 -83 -57 -163 0 -81 16 -124 59 -161 28 -23 42 -27 96 -27 70 0 75 5 75 70 0 61 -7 70 -54 70 -24 0 -45 2 -47 4 -3 3 -3 23 -1 46 l4 41 107 -3 106 -3 0 -145 0 -145 -29 -14 c-16 -7 -74 -16 -131 -18 -212 -11 -303 63 -324 265 -7 67 -9 70 -10 27 -1 -64 23 -158 51 -199 33 -45 56 -63 118 -87 48 -19 68 -21 165 -16 61 3 125 12 143 19 l32 12 0 158 0 158 -119 0 -119 0 -4 -42 c-7 -62 4 -78 48 -71 42 7 54 -5 54 -57 0 -57 -10 -64 -82 -57 -55 5 -66 9 -90 38 -44 52 -51 186 -13 259 38 73 114 89 255 55 22 -5 27 -1 43 38 10 24 15 50 12 58 -9 23 -86 39 -189 39 -87 0 -99 -3 -156 -32z"/>
<path d="M686 1815 c-3 -9 -6 -29 -5 -43 1 -22 3 -19 10 12 10 40 6 60 -5 31z"/>
</g>
</g>
  <g id="id2:id2" transform="matrix(1.25,0,0,1.25,0.0,0.0)"><g transform="translate(0.000000,82.400000) scale(0.040000,-0.040000)" fill="#fafbfc" stroke="none">
<path d="M1516 2045 c-10 -8 -80 -49 -155 -91 -75 -43 -139 -82 -143 -88 -4 -6 -8 -120 -8 -253 l0 -243 -121 0 c-142 0 -175 -11 -208 -70 -12 -22 -27 -40 -32 -40 -5 0 -21 -11 -34 -25 -23 -22 -25 -32 -25 -117 0 -103 9 -127 60 -153 28 -14 48 -50 36 -63 -4 -3 -19 7 -34 21 l-28 27 -177 0 -177 0 -54 -57 c-166 -178 -346 -379 -346 -386 0 -16 32 -19 49 -3 10 9 21 16 24 16 4 0 6 -102 5 -227 l-3 -228 -73 -3 c-69 -3 -73 -4 -70 -25 l3 -22 1075 -3 c591 -1 1085 0 1098 3 13 3 22 13 22 25 0 18 -7 20 -65 20 l-65 0 0 859 0 859 -242 141 c-146 85 -251 141 -267 141 -14 0 -35 -7 -45 -15z m243 -135 c105 -60 208 -121 231 -135 l40 -26 -2 -842 -3 -842 -207 -3 -208 -2 0 413 c0 308 -3 416 -12 425 -7 7 -34 12 -60 12 l-49 0 15 27 c12 24 19 27 57 25 77 -4 99 31 99 156 0 86 -1 91 -30 122 -38 41 -42 105 -8 151 21 28 21 32 7 57 -29 52 -119 34 -119 -23 0 -12 9 -34 21 -48 15 -20 19 -38 17 -69 -4 -53 -18 -57 -43 -11 -29 53 -74 73 -168 73 l-77 0 2 237 3 237 145 87 c80 48 148 88 152 88 4 1 92 -48 197 -109z m-161 -487 c5 -17 -26 -29 -40 -15 -6 6 -7 15 -3 22 9 14 37 9 43 -7z m-143 -128 c24 -23 25 -28 25 -174 0 -148 0 -150 -26 -178 l-26 -28 21 29 c19 26 21 42 21 175 0 207 22 192 -278 189 -150 -2 -237 -7 -236 -13 0 -5 -5 -16 -12 -22 -9 -9 -12 -57 -10 -169 1 -141 3 -157 21 -170 15 -11 67 -14 244 -14 123 0 222 -2 219 -5 -3 -3 -108 -6 -233 -7 l-228 -1 -24 27 c-22 26 -23 34 -23 177 0 145 6 183 34 201 6 4 118 8 249 8 l238 0 24 -25z m120 -76 c4 -6 13 -8 20 -5 18 6 25 -25 25 -112 0 -57 -3 -74 -16 -79 -26 -10 -35 17 -32 95 2 39 0 72 -4 72 -5 0 -8 -36 -8 -79 0 -70 3 -82 21 -95 l22 -15 -24 1 c-48 3 -59 24 -59 111 0 61 4 85 17 99 18 21 29 23 38 7z m-705 -104 c0 -83 -3 -105 -14 -105 -8 0 -17 7 -20 16 -10 26 -7 154 4 175 22 40 30 17 30 -86z m230 85 c27 -27 25 -56 -5 -85 -29 -30 -45 -31 -79 -4 -32 25 -33 55 -4 86 26 28 61 30 88 3z m300 0 c11 -11 20 -30 20 -42 0 -28 -37 -68 -64 -68 -27 0 -66 39 -66 67 0 30 34 63 65 63 14 0 34 -9 45 -20z m-239 -161 c15 -29 72 -26 93 6 18 27 24 29 45 16 22 -14 4 -59 -32 -81 -60 -37 -144 -16 -162 41 -14 43 34 59 56 18z m-260 -236 c46 -54 114 -132 151 -174 38 -42 68 -79 68 -82 0 -4 -59 -7 -132 -7 l-131 0 -72 75 c-39 42 -69 77 -68 79 2 2 -16 21 -41 44 -24 22 -42 42 -40 44 2 2 -19 26 -46 53 -28 27 -50 53 -50 57 0 4 62 8 139 8 l138 0 84 -97z m-278 -70 l137 -151 0 -261 0 -261 -285 0 -285 0 0 263 0 262 138 152 c75 84 142 151 147 150 6 -1 72 -70 148 -154z m945 -270 l-3 -408 -155 -3 c-85 -2 -170 0 -187 3 l-33 6 0 239 0 240 -107 121 c-162 183 -162 183 -163 197 0 9 71 12 325 12 l325 0 -2 -407z m-743 37 c4 -6 68 -10 161 -10 l154 0 0 -215 0 -215 -165 2 -166 3 -2 223 c-2 205 1 239 18 212z"/>
<path d="M1570 1420 c0 -5 5 -10 10 -10 6 0 10 5 10 10 0 6 -4 10 -10 10 -5 0 -10 -4 -10 -10z"/>
<path d="M1020 1192 c-28 -22 -22 -65 11 -83 52 -28 105 46 59 83 -12 10 -28 18 -35 18 -7 0 -23 -8 -35 -18z"/>
<path d="M1317 1192 c-23 -26 -21 -58 5 -76 29 -21 51 -20 71 2 22 24 21 55 -1 75 -24 22 -55 21 -75 -1z"/>
<path d="M1256 1035 c-21 -32 -70 -34 -103 -3 -29 27 -52 13 -33 -21 13 -25 48 -41 90 -41 38 0 96 50 87 73 -9 24 -22 21 -41 -8z"/>
<path d="M462 430 c0 -19 2 -27 5 -17 2 9 2 25 0 35 -3 9 -5 1 -5 -18z"/>
<path d="M492 430 c0 -19 2 -27 5 -17 2 9 2 25 0 35 -3 9 -5 1 -5 -18z"/>
<path d="M360 390 c0 -5 5 -10 11 -10 5 0 7 5 4 10 -3 6 -8 10 -11 10 -2 0 -4 -4 -4 -10z"/>
<path d="M585 390 c-3 -5 -1 -10 4 -10 6 0 11 5 11 10 0 6 -2 10 -4 10 -3 0 -8 -4 -11 -10z"/>
<path d="M366 342 c-2 -4 12 -6 32 -4 62 6 69 10 20 11 -26 0 -49 -3 -52 -7z"/>
<path d="M523 343 c15 -2 39 -2 55 0 15 2 2 4 -28 4 -30 0 -43 -2 -27 -4z"/>
<path d="M462 300 c0 -19 2 -27 5 -17 2 9 2 25 0 35 -3 9 -5 1 -5 -18z"/>
<path d="M491 314 c0 -11 3 -14 6 -6 3 7 2 16 -1 19 -3 4 -6 -2 -5 -13z"/>
<path d="M367 248 c2 -5 22 -8 43 -8 21 0 41 3 43 8 3 4 -17 7 -43 7 -26 0 -46 -3 -43 -7z"/>
<path d="M507 248 c2 -5 22 -8 43 -8 21 0 41 3 43 8 3 4 -17 7 -43 7 -26 0 -46 -3 -43 -7z"/>
<path d="M163 1976 c-57 -27 -106 -84 -123 -145 -38 -135 -8 -311 64 -373 60 -52 96 -63 211 -63 86 0 117 4 142 18 104 56 145 136 145 282 0 114 -25 187 -82 239 -60 54 -99 66 -209 66 -80 0 -104 -4 -148 -24z m310 -19 c89 -53 122 -135 114 -285 -5 -106 -20 -150 -65 -198 -47 -51 -88 -67 -183 -72 -142 -7 -220 29 -269 124 -21 41 -26 66 -28 153 -5 124 8 175 55 231 59 68 96 81 234 76 84 -2 103 -7 142 -29z"/>
<path d="M245 1881 c-53 -32 -68 -67 -73 -162 -5 -91 6 -143 36 -175 65 -71 190 -53 232 31 8 17 16 67 18 111 5 100 -18 162 -70 194 -41 25 -103 26 -143 1z m161 -36 c37 -41 50 -112 39 -198 -10 -70 -27 -101 -69 -121 -42 -20 -76 -20 -122 -1 -49 20 -73 78 -74 171 0 79 16 128 52 160 32 30 47 34 98 29 36 -4 51 -12 76 -40z"/>
<path d="M820 1968 c-42 -23 -73 -48 -97 -80 -19 -27 -31 -48 -26 -47 4 0 24 22 44 48 48 63 110 92 209 98 76 5 186 -9 203 -26 6 -6 3 -24 -8 -46 -15 -34 -20 -36 -48 -31 -121 24 -165 17 -220 -33 -41 -37 -57 -83 -57 -163 0 -81 16 -124 59 -161 28 -23 42 -27 96 -27 70 0 75 5 75 70 0 61 -7 70 -54 70 -24 0 -45 2 -47 4 -3 3 -3 23 -1 46 l4 41 107 -3 106 -3 0 -145 0 -145 -29 -14 c-16 -7 -74 -16 -131 -18 -212 -11 -303 63 -324 265 -7 67 -9 70 -10 27 -1 -64 23 -158 51 -199 33 -45 56 -63 118 -87 48 -19 68 -21 165 -16 61 3 125 12 143 19 l32 12 0 158 0 158 -119 0 -119 0 -4 -42 c-7 -62 4 -78 48 -71 42 7 54 -5 54 -57 0 -57 -10 -64 -82 -57 -55 5 -66 9 -90 38 -44 52 -51 186 -13 259 38 73 114 89 255 55 22 -5 27 -1 43 38 10 24 15 50 12 58 -9 23 -86 39 -189 39 -87 0 -99 -3 -156 -32z"/>
<path d="M686 1815 c-3 -9 -6 -29 -5 -43 1 -22 3 -19 10 12 10 40 6 60 -5 31z"/>
</g>
</g>
  <g id="id3:id3" transform="matrix(1.25,0,0,1.25,0.0,0.0)"><g transform="translate(0.000000,82.400000) scale(0.040000,-0.040000)" fill="#bde0db" stroke="none">
<path d="M1516 2045 c-10 -8 -80 -49 -155 -91 -75 -43 -139 -82 -143 -88 -4 -6 -8 -120 -8 -253 l0 -243 -121 0 c-142 0 -175 -11 -208 -70 -12 -22 -27 -40 -32 -40 -5 0 -21 -11 -34 -25 -23 -22 -25 -32 -25 -117 0 -103 9 -127 60 -153 28 -14 48 -50 36 -63 -4 -3 -19 7 -34 21 l-28 27 -177 0 -177 0 -54 -57 c-166 -178 -346 -379 -346 -386 0 -16 32 -19 49 -3 10 9 21 16 24 16 4 0 6 -102 5 -227 l-3 -228 -73 -3 c-72 -3 -72 -3 -70 -30 l2 -27 1095 5 c603 3 1097 6 1099 8 1 1 2 11 2 22 0 18 -7 20 -65 20 l-65 0 0 859 0 859 -242 141 c-146 85 -251 141 -267 141 -14 0 -35 -7 -45 -15z m69 -35 c3 -5 0 -8 -7 -5 -10 4 -13 -45 -13 -255 l0 -260 22 0 c22 0 63 -42 63 -64 0 -7 -11 -27 -25 -46 -14 -19 -25 -31 -25 -27 0 5 10 21 22 38 21 28 21 32 7 57 -29 52 -119 34 -119 -23 0 -12 9 -34 21 -48 15 -20 19 -38 17 -69 -4 -53 -18 -57 -43 -11 -29 53 -74 73 -168 73 l-77 0 2 237 3 237 145 87 c148 89 164 96 175 79z m75 -46 c0 -2 -9 0 -20 6 -11 6 -20 13 -20 16 0 2 9 0 20 -6 11 -6 20 -13 20 -16z m143 -79 c64 -36 117 -69 117 -71 0 -3 -3 -3 -7 -1 -5 2 -61 35 -125 72 -65 36 -118 69 -118 71 0 3 3 3 8 1 4 -2 60 -35 125 -72z m167 -101 c0 -2 -9 0 -20 6 -11 6 -20 13 -20 16 0 2 9 0 20 -6 11 -6 20 -13 20 -16z m58 -843 l-3 -806 -2 808 c-2 444 -7 806 -11 803 -5 -3 -9 1 -9 9 0 11 4 12 14 4 11 -9 13 -156 11 -818z m-428 478 c0 -15 -30 -23 -42 -11 -6 6 -7 15 -4 20 7 12 46 4 46 -9z m7 -121 c-3 -7 -5 -2 -5 12 0 14 2 19 5 13 2 -7 2 -19 0 -25z m-177 9 c0 -5 4 -6 9 -3 5 3 15 -2 22 -11 12 -14 12 -16 -1 -9 -13 7 -13 6 0 -6 12 -10 15 -42 15 -160 0 -83 -4 -148 -9 -148 -5 0 -7 -3 -4 -6 4 -3 -2 -14 -13 -25 -18 -18 -36 -19 -259 -20 -162 -1 -245 3 -254 10 -10 8 -11 24 -5 63 5 29 6 101 3 159 -5 91 -4 108 11 122 15 16 15 18 0 23 -9 4 -12 10 -7 13 15 9 492 7 492 -2z m-513 -269 c-1 -46 -3 -11 -3 77 0 88 2 125 3 83 2 -42 2 -114 0 -160z m733 191 c15 -28 5 -23 -15 7 -9 15 -12 23 -6 20 6 -4 16 -16 21 -27z m-67 -13 c-4 -5 1 -7 9 -3 21 8 28 -19 28 -111 0 -57 -3 -74 -16 -79 -26 -10 -35 17 -32 95 2 39 0 72 -4 72 -5 0 -8 -36 -8 -79 0 -70 3 -82 21 -95 l22 -15 -24 1 c-48 3 -59 24 -59 111 0 60 4 85 16 98 16 18 57 23 47 5z m-713 -101 c0 -86 -3 -105 -15 -105 -20 0 -27 33 -22 115 l3 70 2 -82 c3 -119 22 -117 22 2 0 70 -3 94 -12 89 -7 -4 -8 -3 -4 4 19 31 26 4 26 -93z m795 -93 c-9 -38 -53 -72 -93 -72 l-34 0 23 -20 24 -19 -48 -1 -48 0 15 27 c12 24 19 27 57 25 76 -4 98 30 101 155 l2 88 3 -80 c2 -44 1 -90 -2 -103z m-527 -119 c-10 -2 -28 -2 -40 0 -13 2 -5 4 17 4 22 1 32 -1 23 -4z m480 -417 l2 -417 200 1 199 2 4 26 c4 24 5 24 3 -3 l-1 -30 -207 -3 -208 -3 0 414 c0 317 -3 416 -12 426 -11 11 -10 13 2 9 13 -4 15 -61 18 -422z m-717 317 c46 -54 114 -132 151 -174 38 -42 68 -79 68 -82 0 -4 -59 -7 -132 -7 l-131 0 -72 75 c-39 42 -69 77 -68 79 2 2 -16 21 -41 44 -24 22 -42 42 -40 44 2 2 -19 26 -46 53 -28 27 -50 53 -50 57 0 4 62 8 139 8 l138 0 84 -97z m-278 -70 l137 -151 0 -261 0 -261 -285 0 -285 0 0 263 0 262 138 152 c75 84 142 151 147 150 6 -1 72 -70 148 -154z m945 -270 l-3 -408 -155 -3 c-85 -2 -170 0 -187 3 l-33 6 0 239 0 240 -107 121 c-162 183 -162 183 -163 197 0 9 71 12 325 12 l325 0 -2 -407z m-743 37 c4 -6 68 -10 161 -10 l154 0 0 -215 0 -215 -165 2 -166 3 -2 223 c-2 205 1 239 18 212z"/>
<path d="M1036 1209 c2 -3 -8 -12 -21 -19 -16 -9 -25 -22 -25 -37 0 -13 4 -22 9 -18 5 3 12 -4 16 -15 4 -11 11 -18 16 -15 5 4 9 1 9 -4 0 -6 7 -11 15 -11 8 0 15 5 15 12 0 6 3 9 6 5 8 -8 33 16 27 26 -2 4 0 7 5 7 15 0 9 33 -8 48 -11 10 -11 12 -1 6 9 -4 12 -3 7 4 -4 6 -14 8 -23 5 -9 -4 -14 -2 -11 3 4 5 -4 9 -17 9 -13 0 -21 -3 -19 -6z"/>
<path d="M1315 1194 c-29 -30 -29 -59 0 -74 13 -7 22 -17 19 -22 -12 -18 37 -6 58 15 28 28 29 55 3 82 -26 26 -55 26 -80 -1z"/>
<path d="M1262 1055 c-7 -8 -10 -15 -6 -15 3 0 1 -6 -5 -13 -6 -8 -26 -13 -46 -12 -38 2 -50 9 -50 28 -1 7 -7 10 -15 8 -8 -2 -20 -4 -26 -4 -13 0 -14 -27 -1 -27 6 0 7 -3 4 -7 -12 -11 24 -42 41 -36 9 4 13 2 9 -4 -9 -15 65 -11 81 5 8 7 17 10 22 7 4 -3 14 3 21 13 12 15 12 16 -1 7 -14 -9 -14 -9 0 5 18 17 27 55 11 45 -6 -3 -11 -1 -11 4 0 15 -13 13 -28 -4z"/>
<path d="M942 934 c10 -10 20 -16 22 -13 3 3 -5 11 -17 18 -21 13 -21 12 -5 -5z"/>
<path d="M1542 1208 c-17 -17 -16 -172 1 -186 9 -8 12 12 12 94 0 57 0 104 0 104 -1 0 -6 -5 -13 -12z"/>
<path d="M1590 1116 c0 -51 4 -86 10 -86 6 0 10 33 10 79 0 44 -4 83 -10 86 -6 4 -10 -25 -10 -79z"/>
<path d="M380 437 c0 -42 3 -45 40 -39 28 4 31 8 28 36 -3 27 -7 31 -35 34 -31 3 -33 2 -33 -31z"/>
<path d="M517 464 c-4 -4 -7 -20 -7 -36 0 -28 2 -29 37 -26 34 3 37 6 37 33 0 26 -4 30 -30 33 -16 2 -33 0 -37 -4z"/>
<path d="M462 430 c0 -19 2 -27 5 -17 2 9 2 25 0 35 -3 9 -5 1 -5 -18z"/>
<path d="M492 430 c0 -19 2 -27 5 -17 2 9 2 25 0 35 -3 9 -5 1 -5 -18z"/>
<path d="M360 390 c0 -5 5 -10 11 -10 5 0 7 5 4 10 -3 6 -8 10 -11 10 -2 0 -4 -4 -4 -10z"/>
<path d="M585 390 c-3 -5 -1 -10 4 -10 6 0 11 5 11 10 0 6 -2 10 -4 10 -3 0 -8 -4 -11 -10z"/>
<path d="M366 342 c-2 -4 12 -6 32 -4 62 6 69 10 20 11 -26 0 -49 -3 -52 -7z"/>
<path d="M523 343 c15 -2 39 -2 55 0 15 2 2 4 -28 4 -30 0 -43 -2 -27 -4z"/>
<path d="M380 294 c0 -34 1 -35 33 -32 28 3 32 7 35 36 3 31 2 32 -32 32 -35 0 -36 -1 -36 -36z"/>
<path d="M462 300 c0 -19 2 -27 5 -17 2 9 2 25 0 35 -3 9 -5 1 -5 -18z"/>
<path d="M491 314 c0 -11 3 -14 6 -6 3 7 2 16 -1 19 -3 4 -6 -2 -5 -13z"/>
<path d="M512 298 c3 -30 6 -33 38 -33 32 0 35 2 36 33 2 31 0 32 -38 32 -38 0 -39 -1 -36 -32z"/>
<path d="M367 248 c2 -5 22 -8 43 -8 21 0 41 3 43 8 3 4 -17 7 -43 7 -26 0 -46 -3 -43 -7z"/>
<path d="M507 248 c2 -5 22 -8 43 -8 21 0 41 3 43 8 3 4 -17 7 -43 7 -26 0 -46 -3 -43 -7z"/>
<path d="M163 1976 c-57 -27 -106 -84 -123 -145 -38 -135 -8 -311 64 -373 60 -52 96 -63 211 -63 86 0 117 4 142 18 104 56 145 136 145 282 0 114 -25 187 -82 239 -60 54 -99 66 -209 66 -80 0 -104 -4 -148 -24z m310 -19 c89 -53 122 -135 114 -285 -5 -106 -20 -150 -65 -198 -47 -51 -88 -67 -183 -72 -142 -7 -220 29 -269 124 -21 41 -26 66 -28 153 -5 124 8 175 55 231 59 68 96 81 234 76 84 -2 103 -7 142 -29z"/>
<path d="M245 1881 c-53 -32 -68 -67 -73 -162 -5 -91 6 -143 36 -175 65 -71 190 -53 232 31 8 17 16 67 18 111 5 100 -18 162 -70 194 -41 25 -103 26 -143 1z m161 -36 c37 -41 50 -112 39 -198 -10 -70 -27 -101 -69 -121 -42 -20 -76 -20 -122 -1 -49 20 -73 78 -74 171 0 79 16 128 52 160 32 30 47 34 98 29 36 -4 51 -12 76 -40z"/>
<path d="M820 1968 c-42 -23 -73 -48 -97 -80 -19 -27 -31 -48 -26 -47 4 0 24 22 44 48 48 63 110 92 209 98 76 5 186 -9 203 -26 6 -6 3 -24 -8 -46 -15 -34 -20 -36 -48 -31 -121 24 -165 17 -220 -33 -41 -37 -57 -83 -57 -163 0 -81 16 -124 59 -161 28 -23 42 -27 96 -27 70 0 75 5 75 70 0 61 -7 70 -54 70 -24 0 -45 2 -47 4 -3 3 -3 23 -1 46 l4 41 107 -3 106 -3 0 -145 0 -145 -29 -14 c-16 -7 -74 -16 -131 -18 -212 -11 -303 63 -324 265 -7 67 -9 70 -10 27 -1 -64 23 -158 51 -199 33 -45 56 -63 118 -87 48 -19 68 -21 165 -16 61 3 125 12 143 19 l32 12 0 158 0 158 -119 0 -119 0 -4 -42 c-7 -62 4 -78 48 -71 42 7 54 -5 54 -57 0 -57 -10 -64 -82 -57 -55 5 -66 9 -90 38 -44 52 -51 186 -13 259 38 73 114 89 255 55 22 -5 27 -1 43 38 10 24 15 50 12 58 -9 23 -86 39 -189 39 -87 0 -99 -3 -156 -32z"/>
<path d="M686 1815 c-3 -9 -6 -29 -5 -43 1 -22 3 -19 10 12 10 40 6 60 -5 31z"/>
</g>
</g>
  <g id="id4:id4" transform="matrix(1.25,0,0,1.25,0.0,0.0)"><g transform="translate(0.000000,82.400000) scale(0.040000,-0.040000)" fill="#91a8c9" stroke="none">
<path d="M1516 2045 c-10 -8 -80 -49 -155 -91 -75 -43 -139 -82 -143 -88 -4 -6 -8 -120 -8 -253 l0 -243 -97 0 c-95 0 -97 1 -68 16 17 9 42 13 58 10 15 -3 27 -1 27 4 0 5 11 12 25 16 l25 6 0 159 0 159 -119 0 -119 0 -4 -42 c-7 -62 4 -78 48 -71 42 7 54 -5 54 -57 0 -57 -10 -64 -82 -57 -55 5 -66 9 -90 38 -44 52 -51 186 -13 259 38 73 114 89 255 55 22 -5 27 -1 43 38 10 24 15 50 12 58 -9 23 -86 39 -189 39 -87 0 -99 -3 -156 -32 -42 -23 -73 -48 -97 -80 -19 -27 -31 -48 -26 -47 4 0 24 22 44 48 48 63 110 92 209 98 76 5 186 -9 203 -26 6 -6 3 -24 -8 -46 -15 -34 -20 -36 -48 -31 -121 24 -165 17 -220 -33 -41 -37 -57 -83 -57 -163 0 -81 16 -124 59 -161 28 -23 42 -27 96 -27 70 0 75 5 75 70 0 61 -7 70 -54 70 -24 0 -45 2 -47 4 -3 3 -3 23 -1 46 l4 41 107 -3 106 -3 0 -145 0 -145 -29 -14 c-16 -7 -74 -16 -131 -18 -80 -5 -113 -2 -154 12 -103 34 -157 114 -168 248 -3 40 -9 79 -13 87 -13 24 -11 -171 2 -210 23 -66 85 -139 120 -140 9 0 20 -5 24 -11 4 -7 38 -9 98 -6 55 3 73 2 46 -3 -27 -4 -35 -8 -20 -9 25 -1 24 -2 -6 -17 -17 -8 -41 -33 -53 -54 -12 -22 -27 -40 -32 -40 -5 0 -21 -11 -34 -25 -23 -22 -25 -32 -25 -117 0 -103 9 -127 60 -153 28 -14 48 -50 36 -63 -4 -3 -19 7 -34 21 l-28 27 -177 0 -177 0 -54 -57 c-166 -178 -346 -379 -346 -386 0 -16 32 -19 49 -3 10 9 21 16 24 16 4 0 6 -102 5 -227 l-3 -228 -73 -3 c-69 -3 -73 -4 -70 -25 l3 -22 1075 -3 c591 -1 1085 0 1098 3 13 3 22 13 22 25 0 18 -7 20 -65 20 l-65 0 0 859 0 859 -242 141 c-146 85 -251 141 -267 141 -14 0 -35 -7 -45 -15z m243 -135 c105 -60 208 -121 231 -135 l40 -26 -2 -842 -3 -842 -207 -3 -208 -2 0 413 c0 308 -3 416 -12 425 -7 7 -34 12 -60 12 l-49 0 15 27 c12 24 19 27 57 25 77 -4 99 31 99 156 0 86 -1 91 -30 122 -38 41 -42 105 -8 151 21 28 21 32 7 57 -29 52 -119 34 -119 -23 0 -12 9 -34 21 -48 15 -20 19 -38 17 -69 -4 -53 -18 -57 -43 -11 -29 53 -74 73 -168 73 l-77 0 2 237 3 237 145 87 c80 48 148 88 152 88 4 1 92 -48 197 -109z m-1037 -414 c13 -19 41 -46 62 -60 33 -21 36 -26 18 -26 -12 0 -22 4 -22 8 0 5 -11 14 -24 21 -13 7 -30 25 -37 40 -8 14 -16 28 -19 31 -10 10 -30 77 -29 101 0 14 6 2 14 -28 8 -29 25 -68 37 -87z m871 -70 c6 -16 -10 -26 -30 -19 -15 6 -5 33 12 33 7 0 15 -6 18 -14z m-728 -26 c19 -8 19 -9 -2 -9 -12 -1 -25 4 -28 9 -7 12 2 12 30 0z m590 -105 c24 -23 25 -28 25 -175 l0 -152 -29 -29 -29 -29 -139 -2 c-160 -3 -197 -2 -274 2 -86 5 -90 14 -90 201 0 173 4 196 35 202 11 2 124 5 249 6 l228 1 24 -25z m127 -87 c-2 -10 -8 -18 -13 -18 -5 0 -6 8 -3 18 5 14 4 15 -5 2 -12 -17 -15 -194 -3 -186 4 2 16 -2 27 -10 19 -14 19 -15 -8 -10 -15 2 -33 11 -40 18 -15 17 -14 173 3 193 17 20 48 15 42 -7z m-720 -85 c-2 -54 -8 -102 -13 -107 -10 -11 -10 -15 -10 92 -1 74 6 112 20 112 3 0 5 -44 3 -97z m744 82 c-3 -8 -1 -15 4 -15 6 0 10 -35 10 -80 0 -64 -3 -80 -15 -80 -12 0 -15 15 -15 79 0 75 6 111 17 111 3 0 3 -7 -1 -15z m-29 -132 c-2 -21 -4 -4 -4 37 0 41 2 58 4 38 2 -21 2 -55 0 -75z m-954 -340 l137 -151 0 -261 0 -261 -285 0 -285 0 0 263 0 262 138 152 c75 84 142 151 147 150 6 -1 72 -70 148 -154z m-58 149 c-3 -3 5 -17 17 -31 19 -21 17 -20 -10 3 -37 35 -36 33 -17 33 8 0 13 -3 10 -5z m286 -19 c13 -16 12 -17 -3 -4 -10 7 -18 15 -18 17 0 8 8 3 21 -13z m717 -400 l-3 -408 -155 -3 c-85 -2 -170 0 -187 3 l-33 6 0 239 0 240 -107 121 c-162 183 -162 183 -163 197 0 9 71 12 325 12 l325 0 -2 -407z m-653 327 c10 -11 16 -20 13 -20 -3 0 -13 9 -23 20 -10 11 -16 20 -13 20 3 0 13 -9 23 -20z m-244 -37 l24 -28 -30 25 c-16 14 -32 26 -34 28 -2 1 0 2 6 2 5 0 20 -12 34 -27z m300 -30 c13 -16 12 -17 -3 -4 -10 7 -18 15 -18 17 0 8 8 3 21 -13z m-220 -60 l24 -28 -30 25 c-16 14 -32 26 -34 28 -2 1 0 2 6 2 5 0 20 -12 34 -27z m294 -23 c10 -11 16 -20 13 -20 -3 0 -13 9 -23 20 -10 11 -16 20 -13 20 3 0 13 -9 23 -20z m-65 -93 l125 -3 -126 -2 -126 -2 -24 28 -24 27 25 -22 c23 -20 38 -23 150 -26z m139 -1 c-2 -2 -13 8 -23 22 l-19 27 24 -22 c12 -12 21 -24 18 -27z m18 -363 c-2 -21 -4 -6 -4 32 0 39 2 55 4 38 2 -18 2 -50 0 -70z m-3 -112 c4 -5 -59 -9 -151 -8 l-158 1 150 6 c83 3 151 7 152 8 1 1 4 -2 7 -7z"/>
<path d="M1020 1192 c-28 -22 -22 -65 11 -83 52 -28 105 46 59 83 -12 10 -28 18 -35 18 -7 0 -23 -8 -35 -18z"/>
<path d="M1317 1192 c-23 -26 -21 -58 5 -76 29 -21 51 -20 71 2 22 24 21 55 -1 75 -24 22 -55 21 -75 -1z"/>
<path d="M1256 1035 c-21 -32 -70 -34 -103 -3 -29 27 -52 13 -33 -21 13 -25 48 -41 90 -41 38 0 96 50 87 73 -9 24 -22 21 -41 -8z"/>
<path d="M360 470 c0 -5 5 -10 11 -10 5 0 7 5 4 10 -3 6 -8 10 -11 10 -2 0 -4 -4 -4 -10z"/>
<path d="M455 448 c-4 -10 -4 -26 0 -35 8 -17 8 -17 12 0 3 9 3 25 0 35 -4 16 -4 16 -12 0z"/>
<path d="M491 431 c-1 -24 2 -32 9 -25 7 7 7 19 1 35 -9 23 -10 22 -10 -10z"/>
<path d="M360 390 c0 -5 5 -10 10 -10 6 0 10 5 10 10 0 6 -4 10 -10 10 -5 0 -10 -4 -10 -10z"/>
<path d="M505 390 c-3 -5 -1 -10 4 -10 6 0 11 5 11 10 0 6 -2 10 -4 10 -3 0 -8 -4 -11 -10z"/>
<path d="M580 390 c0 -5 5 -10 10 -10 6 0 10 5 10 10 0 6 -4 10 -10 10 -5 0 -10 -4 -10 -10z"/>
<path d="M366 342 c-2 -4 13 -6 34 -4 30 3 40 0 49 -16 6 -11 8 -28 5 -36 -3 -9 -1 -16 5 -16 6 0 11 14 11 30 0 17 -5 30 -11 30 -5 0 -7 5 -4 10 4 6 -11 10 -39 10 -25 0 -47 -3 -50 -8z"/>
<path d="M505 340 c3 -5 1 -10 -4 -10 -6 0 -11 -8 -11 -17 0 -15 4 -14 19 6 14 19 25 23 50 19 18 -3 34 -1 37 4 3 4 -18 8 -46 8 -32 0 -49 -4 -45 -10z"/>
<path d="M490 280 c0 -5 5 -10 11 -10 5 0 7 5 4 10 -3 6 -8 10 -11 10 -2 0 -4 -4 -4 -10z"/>
<path d="M366 249 c3 -5 23 -9 44 -9 21 0 41 4 44 9 3 4 -17 8 -44 8 -27 0 -47 -4 -44 -8z"/>
<path d="M506 249 c3 -5 23 -9 44 -9 21 0 41 4 44 9 3 4 -17 8 -44 8 -27 0 -47 -4 -44 -8z"/>
<path d="M163 1976 c-110 -51 -165 -199 -133 -358 16 -82 39 -126 99 -186 43 -43 55 -50 102 -55 76 -9 129 -6 64 4 -42 6 -37 7 32 5 51 -2 80 1 76 7 -3 5 0 7 8 5 16 -6 81 32 121 70 45 42 70 123 70 227 0 114 -25 187 -82 239 -60 54 -99 66 -209 66 -80 0 -104 -4 -148 -24z m310 -19 c89 -53 122 -135 114 -285 -5 -106 -20 -150 -65 -198 -49 -54 -86 -66 -212 -74 -90 -6 -121 -5 -142 6 -16 8 -28 17 -28 20 0 2 13 -2 30 -11 16 -8 37 -15 47 -15 10 1 -4 10 -31 20 -102 40 -139 107 -144 259 -5 124 8 175 55 231 59 68 96 81 234 76 84 -2 103 -7 142 -29z"/>
<path d="M245 1881 c-53 -32 -68 -67 -73 -162 -5 -91 6 -143 36 -175 65 -71 190 -53 232 31 8 17 16 67 18 111 5 100 -18 162 -70 194 -41 25 -103 26 -143 1z m161 -36 c37 -41 50 -112 39 -198 -10 -70 -27 -101 -69 -121 -42 -20 -76 -20 -122 -1 -49 20 -73 78 -74 171 0 79 16 128 52 160 32 30 47 34 98 29 36 -4 51 -12 76 -40z"/>
<path d="M683 1808 c-6 -13 -7 -32 -3 -43 5 -15 8 -11 13 20 8 46 4 54 -10 23z"/>
</g>
</g>
  <g id="id5:id5" transform="matrix(1.25,0,0,1.25,0.0,0.0)"><g transform="translate(0.000000,82.400000) scale(0.040000,-0.040000)" fill="#a9bcbd" stroke="none">
<path d="M1516 2045 c-10 -8 -80 -49 -155 -91 -75 -43 -139 -82 -143 -88 -4 -6 -8 -120 -8 -253 l0 -243 -121 0 c-142 0 -175 -11 -208 -70 -12 -22 -27 -40 -32 -40 -5 0 -21 -11 -34 -25 -23 -22 -25 -32 -25 -117 0 -103 9 -127 60 -153 28 -14 48 -50 36 -63 -4 -3 -19 7 -34 21 l-28 27 -177 0 -177 0 -54 -57 c-166 -178 -346 -379 -346 -386 0 -16 32 -19 49 -3 10 9 21 16 24 16 4 0 6 -102 5 -227 l-3 -228 -73 -3 c-69 -3 -73 -4 -70 -25 l3 -22 1075 -3 c591 -1 1085 0 1098 3 13 3 22 13 22 25 0 18 -7 20 -65 20 l-65 0 0 859 0 859 -242 141 c-146 85 -251 141 -267 141 -14 0 -35 -7 -45 -15z m243 -135 c105 -60 208 -121 231 -135 l40 -26 -2 -842 -3 -842 -207 -3 -208 -2 0 413 c0 308 -3 416 -12 425 -7 7 -34 12 -60 12 l-49 0 15 27 c12 24 19 27 57 25 77 -4 99 31 99 156 0 86 -1 91 -30 122 -38 41 -42 105 -8 151 21 28 21 32 7 57 -29 52 -119 34 -119 -23 0 -12 9 -34 21 -48 15 -20 19 -38 17 -69 -4 -53 -18 -57 -43 -11 -29 53 -74 73 -168 73 l-77 0 2 237 3 237 145 87 c80 48 148 88 152 88 4 1 92 -48 197 -109z m-161 -487 c5 -17 -26 -29 -40 -15 -6 6 -7 15 -3 22 9 14 37 9 43 -7z m-143 -128 c24 -23 25 -28 25 -175 l0 -152 -29 -29 -29 -29 -139 -2 c-76 -1 -181 -1 -233 1 -87 2 -97 5 -117 27 -22 24 -23 34 -23 175 0 145 6 183 34 201 6 4 118 8 249 8 l238 0 24 -25z m120 -76 c4 -6 13 -8 20 -5 18 6 25 -25 25 -112 0 -57 -3 -74 -16 -79 -26 -10 -35 17 -32 95 2 39 0 72 -4 72 -5 0 -8 -36 -8 -79 0 -70 3 -82 21 -95 l22 -15 -24 1 c-48 3 -59 24 -59 111 0 61 4 85 17 99 18 21 29 23 38 7z m-705 -104 c0 -83 -3 -105 -14 -105 -8 0 -17 7 -20 16 -10 26 -7 154 4 175 22 40 30 17 30 -86z m31 -312 c46 -54 114 -132 151 -174 38 -42 68 -79 68 -82 0 -4 -59 -7 -132 -7 l-131 0 -72 75 c-39 42 -69 77 -68 79 2 2 -16 21 -41 44 -24 22 -42 42 -40 44 2 2 -19 26 -46 53 -28 27 -50 53 -50 57 0 4 62 8 139 8 l138 0 84 -97z m-278 -70 l137 -151 0 -261 0 -261 -285 0 -285 0 0 263 0 262 138 152 c75 84 142 151 147 150 6 -1 72 -70 148 -154z m945 -270 l-3 -408 -155 -3 c-85 -2 -170 0 -187 3 l-33 6 0 239 0 240 -107 121 c-162 183 -162 183 -163 197 0 9 71 12 325 12 l325 0 -2 -407z m-743 37 c4 -6 68 -10 161 -10 l154 0 0 -215 0 -215 -165 2 -166 3 -2 223 c-2 205 1 239 18 212z"/>
<path d="M1020 1192 c-28 -22 -22 -65 11 -83 52 -28 105 46 59 83 -12 10 -28 18 -35 18 -7 0 -23 -8 -35 -18z"/>
<path d="M1317 1192 c-23 -26 -21 -58 5 -76 29 -21 51 -20 71 2 22 24 21 55 -1 75 -24 22 -55 21 -75 -1z"/>
<path d="M1256 1035 c-21 -32 -70 -34 -103 -3 -29 27 -52 13 -33 -21 13 -25 48 -41 90 -41 38 0 96 50 87 73 -9 24 -22 21 -41 -8z"/>
<path d="M462 430 c0 -19 2 -27 5 -17 2 9 2 25 0 35 -3 9 -5 1 -5 -18z"/>
<path d="M492 430 c0 -19 2 -27 5 -17 2 9 2 25 0 35 -3 9 -5 1 -5 -18z"/>
<path d="M360 390 c0 -5 5 -10 11 -10 5 0 7 5 4 10 -3 6 -8 10 -11 10 -2 0 -4 -4 -4 -10z"/>
<path d="M585 390 c-3 -5 -1 -10 4 -10 6 0 11 5 11 10 0 6 -2 10 -4 10 -3 0 -8 -4 -11 -10z"/>
<path d="M366 342 c-2 -4 12 -6 32 -4 62 6 69 10 20 11 -26 0 -49 -3 -52 -7z"/>
<path d="M523 343 c15 -2 39 -2 55 0 15 2 2 4 -28 4 -30 0 -43 -2 -27 -4z"/>
<path d="M462 300 c0 -19 2 -27 5 -17 2 9 2 25 0 35 -3 9 -5 1 -5 -18z"/>
<path d="M491 314 c0 -11 3 -14 6 -6 3 7 2 16 -1 19 -3 4 -6 -2 -5 -13z"/>
<path d="M367 248 c2 -5 22 -8 43 -8 21 0 41 3 43 8 3 4 -17 7 -43 7 -26 0 -46 -3 -43 -7z"/>
<path d="M507 248 c2 -5 22 -8 43 -8 21 0 41 3 43 8 3 4 -17 7 -43 7 -26 0 -46 -3 -43 -7z"/>
<path d="M163 1976 c-57 -27 -106 -84 -123 -145 -38 -135 -8 -311 64 -373 60 -52 96 -63 211 -63 86 0 117 4 142 18 104 56 145 136 145 282 0 114 -25 187 -82 239 -60 54 -99 66 -209 66 -80 0 -104 -4 -148 -24z m310 -19 c89 -53 122 -135 114 -285 -5 -106 -20 -150 -65 -198 -47 -51 -88 -67 -183 -72 -142 -7 -220 29 -269 124 -21 41 -26 66 -28 153 -5 124 8 175 55 231 59 68 96 81 234 76 84 -2 103 -7 142 -29z"/>
<path d="M245 1881 c-53 -32 -68 -67 -73 -162 -5 -91 6 -143 36 -175 65 -71 190 -53 232 31 8 17 16 67 18 111 5 100 -18 162 -70 194 -41 25 -103 26 -143 1z m161 -36 c37 -41 50 -112 39 -198 -10 -70 -27 -101 -69 -121 -42 -20 -76 -20 -122 -1 -49 20 -73 78 -74 171 0 79 16 128 52 160 32 30 47 34 98 29 36 -4 51 -12 76 -40z"/>
<path d="M820 1968 c-42 -23 -73 -48 -97 -80 -19 -27 -31 -48 -26 -47 4 0 24 22 44 48 48 63 110 92 209 98 76 5 186 -9 203 -26 6 -6 3 -24 -8 -46 -15 -34 -20 -36 -48 -31 -121 24 -165 17 -220 -33 -41 -37 -57 -83 -57 -163 0 -81 16 -124 59 -161 28 -23 42 -27 96 -27 70 0 75 5 75 70 0 61 -7 70 -54 70 -24 0 -45 2 -47 4 -3 3 -3 23 -1 46 l4 41 107 -3 106 -3 0 -145 0 -145 -29 -14 c-16 -7 -74 -16 -131 -18 -212 -11 -303 63 -324 265 -7 67 -9 70 -10 27 -1 -64 23 -158 51 -199 33 -45 56 -63 118 -87 48 -19 68 -21 165 -16 61 3 125 12 143 19 l32 12 0 158 0 158 -119 0 -119 0 -4 -42 c-7 -62 4 -78 48 -71 42 7 54 -5 54 -57 0 -57 -10 -64 -82 -57 -55 5 -66 9 -90 38 -44 52 -51 186 -13 259 38 73 114 89 255 55 22 -5 27 -1 43 38 10 24 15 50 12 58 -9 23 -86 39 -189 39 -87 0 -99 -3 -156 -32z"/>
<path d="M686 1815 c-3 -9 -6 -29 -5 -43 1 -22 3 -19 10 12 10 40 6 60 -5 31z"/>
</g>
</g>
  <g id="id6:id6" transform="matrix(1.25,0,0,1.25,0.0,0.0)"><g transform="translate(0.000000,82.400000) scale(0.040000,-0.040000)" fill="#2b95d4" stroke="none">
<path d="M1516 2045 c-10 -8 -80 -49 -155 -91 -75 -43 -139 -82 -143 -88 -4 -6 -8 -120 -8 -253 l0 -243 -121 0 c-142 0 -175 -11 -208 -70 -12 -22 -27 -40 -32 -40 -5 0 -21 -11 -34 -25 -23 -22 -25 -32 -25 -117 0 -103 9 -127 60 -153 28 -14 48 -50 36 -63 -4 -3 -19 7 -34 21 l-28 27 -177 0 -177 0 -54 -57 c-166 -178 -346 -379 -346 -386 0 -16 32 -19 49 -3 10 9 21 16 24 16 4 0 6 -102 5 -227 l-3 -228 -73 -3 c-69 -3 -73 -4 -70 -25 l3 -22 1075 -3 c591 -1 1085 0 1098 3 13 3 22 13 22 25 0 18 -7 20 -65 20 l-65 0 0 859 0 859 -242 141 c-146 85 -251 141 -267 141 -14 0 -35 -7 -45 -15z m243 -135 c105 -60 208 -121 231 -135 l40 -26 -2 -842 -3 -842 -207 -3 -208 -2 0 413 c0 308 -3 416 -12 425 -7 7 -34 12 -60 12 l-49 0 15 27 c12 24 19 27 57 25 77 -4 99 31 99 156 0 86 -1 91 -30 122 -38 41 -42 105 -8 151 21 28 21 32 7 57 -29 52 -119 34 -119 -23 0 -12 9 -34 21 -48 15 -20 19 -38 17 -69 -4 -53 -18 -57 -43 -11 -29 53 -74 73 -168 73 l-77 0 2 237 3 237 145 87 c80 48 148 88 152 88 4 1 92 -48 197 -109z m-161 -487 c5 -17 -26 -29 -40 -15 -6 6 -7 15 -3 22 9 14 37 9 43 -7z m-143 -128 c24 -23 25 -28 25 -175 l0 -152 -29 -29 -29 -29 -139 -2 c-76 -1 -181 -1 -233 1 -87 2 -97 5 -117 27 -22 24 -23 34 -23 175 0 145 6 183 34 201 6 4 118 8 249 8 l238 0 24 -25z m122 -84 c-10 -12 -9 -13 9 -3 19 10 23 9 28 -11 3 -12 6 -55 6 -95 0 -57 -3 -74 -16 -79 -26 -10 -35 17 -32 95 2 39 -1 72 -6 72 -4 0 -7 -43 -4 -95 2 -52 2 -95 -1 -95 -2 0 -13 7 -23 17 -25 22 -26 167 -2 194 20 22 59 22 41 0z m-707 -96 c0 -83 -3 -105 -14 -105 -8 0 -17 7 -20 16 -10 26 -7 154 4 175 22 40 30 17 30 -86z m31 -312 c46 -54 114 -132 151 -174 38 -42 68 -79 68 -82 0 -4 -59 -7 -132 -7 l-131 0 -72 75 c-39 42 -69 77 -68 79 2 2 -16 21 -41 44 -24 22 -42 42 -40 44 2 2 -19 26 -46 53 -28 27 -50 53 -50 57 0 4 62 8 139 8 l138 0 84 -97z m-278 -70 l137 -151 0 -261 0 -261 -285 0 -285 0 0 263 0 262 138 152 c75 84 142 151 147 150 6 -1 72 -70 148 -154z m945 -270 l-3 -408 -155 -3 c-85 -2 -170 0 -187 3 l-33 6 0 239 0 240 -107 121 c-162 183 -162 183 -163 197 0 9 71 12 325 12 l325 0 -2 -407z m-743 37 c4 -6 68 -10 161 -10 l154 0 0 -215 0 -215 -165 2 -166 3 -2 223 c-2 205 1 239 18 212z"/>
<path d="M1020 1192 c-28 -22 -22 -65 11 -83 52 -28 105 46 59 83 -12 10 -28 18 -35 18 -7 0 -23 -8 -35 -18z"/>
<path d="M1317 1192 c-23 -26 -21 -58 5 -76 29 -21 51 -20 71 2 22 24 21 55 -1 75 -24 22 -55 21 -75 -1z"/>
<path d="M1256 1035 c-21 -32 -70 -34 -103 -3 -29 27 -52 13 -33 -21 13 -25 48 -41 90 -41 38 0 96 50 87 73 -9 24 -22 21 -41 -8z"/>
<path d="M462 430 c0 -19 2 -27 5 -17 2 9 2 25 0 35 -3 9 -5 1 -5 -18z"/>
<path d="M492 430 c0 -19 2 -27 5 -17 2 9 2 25 0 35 -3 9 -5 1 -5 -18z"/>
<path d="M360 390 c0 -5 5 -10 11 -10 5 0 7 5 4 10 -3 6 -8 10 -11 10 -2 0 -4 -4 -4 -10z"/>
<path d="M585 390 c-3 -5 -1 -10 4 -10 6 0 11 5 11 10 0 6 -2 10 -4 10 -3 0 -8 -4 -11 -10z"/>
<path d="M366 342 c-2 -4 12 -6 32 -4 62 6 69 10 20 11 -26 0 -49 -3 -52 -7z"/>
<path d="M523 343 c15 -2 39 -2 55 0 15 2 2 4 -28 4 -30 0 -43 -2 -27 -4z"/>
<path d="M462 300 c0 -19 2 -27 5 -17 2 9 2 25 0 35 -3 9 -5 1 -5 -18z"/>
<path d="M491 314 c0 -11 3 -14 6 -6 3 7 2 16 -1 19 -3 4 -6 -2 -5 -13z"/>
<path d="M367 248 c2 -5 22 -8 43 -8 21 0 41 3 43 8 3 4 -17 7 -43 7 -26 0 -46 -3 -43 -7z"/>
<path d="M507 248 c2 -5 22 -8 43 -8 21 0 41 3 43 8 3 4 -17 7 -43 7 -26 0 -46 -3 -43 -7z"/>
<path d="M1222 463 l3 -398 168 -3 167 -2 0 400 0 400 -170 0 -170 0 2 -397z"/>
<path d="M163 1976 c-57 -27 -106 -84 -123 -145 -38 -135 -8 -311 64 -373 60 -52 96 -63 211 -63 86 0 117 4 142 18 104 56 145 136 145 282 0 114 -25 187 -82 239 -60 54 -99 66 -209 66 -80 0 -104 -4 -148 -24z m310 -19 c89 -53 122 -135 114 -285 -5 -106 -20 -150 -65 -198 -47 -51 -88 -67 -183 -72 -142 -7 -220 29 -269 124 -21 41 -26 66 -28 153 -5 124 8 175 55 231 59 68 96 81 234 76 84 -2 103 -7 142 -29z"/>
<path d="M245 1881 c-53 -32 -68 -67 -73 -162 -5 -91 6 -143 36 -175 65 -71 190 -53 232 31 8 17 16 67 18 111 5 100 -18 162 -70 194 -41 25 -103 26 -143 1z m161 -36 c37 -41 50 -112 39 -198 -10 -70 -27 -101 -69 -121 -42 -20 -76 -20 -122 -1 -49 20 -73 78 -74 171 0 79 16 128 52 160 32 30 47 34 98 29 36 -4 51 -12 76 -40z"/>
<path d="M820 1968 c-42 -23 -73 -48 -97 -80 -19 -27 -31 -48 -26 -47 4 0 24 22 44 48 48 63 110 92 209 98 76 5 186 -9 203 -26 6 -6 3 -24 -8 -46 -15 -34 -20 -36 -48 -31 -121 24 -165 17 -220 -33 -41 -37 -57 -83 -57 -163 0 -81 16 -124 59 -161 28 -23 42 -27 96 -27 70 0 75 5 75 70 0 61 -7 70 -54 70 -24 0 -45 2 -47 4 -3 3 -3 23 -1 46 l4 41 107 -3 106 -3 0 -145 0 -145 -29 -14 c-16 -7 -74 -16 -131 -18 -212 -11 -303 63 -324 265 -7 67 -9 70 -10 27 -1 -64 23 -158 51 -199 33 -45 56 -63 118 -87 48 -19 68 -21 165 -16 61 3 125 12 143 19 l32 12 0 158 0 158 -119 0 -119 0 -4 -42 c-7 -62 4 -78 48 -71 42 7 54 -5 54 -57 0 -57 -10 -64 -82 -57 -55 5 -66 9 -90 38 -44 52 -51 186 -13 259 38 73 114 89 255 55 22 -5 27 -1 43 38 10 24 15 50 12 58 -9 23 -86 39 -189 39 -87 0 -99 -3 -156 -32z"/>
<path d="M686 1815 c-3 -9 -6 -29 -5 -43 1 -22 3 -19 10 12 10 40 6 60 -5 31z"/>
</g>
</g>
  <g id="id7:id7" transform="matrix(1.25,0,0,1.25,0.0,0.0)"><g transform="translate(0.000000,82.400000) scale(0.040000,-0.040000)" fill="#77c1bc" stroke="none">
<path d="M1516 2045 c-10 -8 -80 -49 -155 -91 -75 -43 -139 -82 -143 -88 -4 -6 -8 -120 -8 -253 l0 -243 -121 0 c-142 0 -175 -11 -208 -70 -12 -22 -27 -40 -32 -40 -5 0 -21 -11 -34 -25 -23 -22 -25 -32 -25 -117 0 -103 9 -127 60 -153 28 -14 48 -50 36 -63 -4 -3 -19 7 -34 21 l-28 27 -177 0 -177 0 -54 -57 c-166 -178 -346 -379 -346 -386 0 -16 32 -19 49 -3 10 9 21 16 24 16 4 0 6 -102 5 -227 l-3 -228 -73 -3 c-69 -3 -73 -4 -70 -25 l3 -22 1075 -3 c591 -1 1085 0 1098 3 13 3 22 13 22 25 0 18 -7 20 -65 20 l-65 0 0 859 0 859 -242 141 c-146 85 -251 141 -267 141 -14 0 -35 -7 -45 -15z m245 -137 c104 -59 206 -119 229 -133 l40 -26 -2 -842 -3 -842 -207 -3 -208 -2 0 413 0 414 -34 28 c-39 32 -38 45 2 45 61 1 82 42 82 158 0 86 -1 91 -30 122 -38 41 -42 105 -8 151 21 28 21 32 7 57 -10 18 -24 28 -44 30 l-30 3 3 265 c2 203 0 264 -9 258 -8 -4 -9 -3 -5 4 4 7 12 11 18 9 7 -1 96 -50 199 -109z m-163 -485 c5 -17 -26 -29 -40 -15 -6 6 -7 15 -3 22 9 14 37 9 43 -7z m-143 -128 c24 -23 25 -28 25 -175 l0 -152 -29 -29 -29 -29 -139 -2 c-76 -1 -181 -1 -233 1 -87 2 -97 5 -117 27 -22 24 -23 34 -23 175 0 145 6 183 34 201 6 4 118 8 249 8 l238 0 24 -25z m120 -76 c4 -6 13 -8 20 -5 18 6 25 -25 25 -112 0 -57 -3 -74 -16 -79 -26 -10 -35 17 -32 95 2 39 0 72 -4 72 -5 0 -8 -36 -8 -79 0 -70 3 -82 21 -95 l22 -15 -24 1 c-48 3 -59 24 -59 111 0 61 4 85 17 99 18 21 29 23 38 7z m-705 -104 c0 -83 -3 -105 -14 -105 -8 0 -17 7 -20 16 -10 26 -7 154 4 175 22 40 30 17 30 -86z m31 -312 c46 -54 114 -132 151 -174 38 -42 68 -79 68 -82 0 -4 -59 -7 -132 -7 l-131 0 -72 75 c-39 42 -69 77 -68 79 2 2 -16 21 -41 44 -24 22 -42 42 -40 44 2 2 -19 26 -46 53 -28 27 -50 53 -50 57 0 4 62 8 139 8 l138 0 84 -97z m-278 -70 l137 -151 0 -261 0 -261 -285 0 -285 0 0 263 0 262 138 152 c75 84 142 151 147 150 6 -1 72 -70 148 -154z m945 -270 l-3 -408 -155 -3 c-85 -2 -170 0 -187 3 l-33 6 0 239 0 240 -107 121 c-162 183 -162 183 -163 197 0 9 71 12 325 12 l325 0 -2 -407z m-743 37 c4 -6 68 -10 161 -10 l154 0 0 -215 0 -215 -165 2 -166 3 -2 223 c-2 205 1 239 18 212z"/>
<path d="M1020 1192 c-28 -22 -22 -65 11 -83 52 -28 105 46 59 83 -12 10 -28 18 -35 18 -7 0 -23 -8 -35 -18z"/>
<path d="M1317 1192 c-23 -26 -21 -58 5 -76 29 -21 51 -20 71 2 22 24 21 55 -1 75 -24 22 -55 21 -75 -1z"/>
<path d="M1256 1035 c-21 -32 -70 -34 -103 -3 -29 27 -52 13 -33 -21 13 -25 48 -41 90 -41 38 0 96 50 87 73 -9 24 -22 21 -41 -8z"/>
<path d="M462 430 c0 -19 2 -27 5 -17 2 9 2 25 0 35 -3 9 -5 1 -5 -18z"/>
<path d="M492 430 c0 -19 2 -27 5 -17 2 9 2 25 0 35 -3 9 -5 1 -5 -18z"/>
<path d="M360 390 c0 -5 5 -10 11 -10 5 0 7 5 4 10 -3 6 -8 10 -11 10 -2 0 -4 -4 -4 -10z"/>
<path d="M585 390 c-3 -5 -1 -10 4 -10 6 0 11 5 11 10 0 6 -2 10 -4 10 -3 0 -8 -4 -11 -10z"/>
<path d="M366 342 c-2 -4 12 -6 32 -4 62 6 69 10 20 11 -26 0 -49 -3 -52 -7z"/>
<path d="M523 343 c15 -2 39 -2 55 0 15 2 2 4 -28 4 -30 0 -43 -2 -27 -4z"/>
<path d="M462 300 c0 -19 2 -27 5 -17 2 9 2 25 0 35 -3 9 -5 1 -5 -18z"/>
<path d="M491 314 c0 -11 3 -14 6 -6 3 7 2 16 -1 19 -3 4 -6 -2 -5 -13z"/>
<path d="M367 248 c2 -5 22 -8 43 -8 21 0 41 3 43 8 3 4 -17 7 -43 7 -26 0 -46 -3 -43 -7z"/>
<path d="M507 248 c2 -5 22 -8 43 -8 21 0 41 3 43 8 3 4 -17 7 -43 7 -26 0 -46 -3 -43 -7z"/>
<path d="M163 1976 c-57 -27 -106 -84 -123 -145 -38 -135 -8 -311 64 -373 60 -52 96 -63 211 -63 86 0 117 4 142 18 104 56 145 136 145 282 0 114 -25 187 -82 239 -60 54 -99 66 -209 66 -80 0 -104 -4 -148 -24z m310 -19 c89 -53 122 -135 114 -285 -5 -106 -20 -150 -65 -198 -47 -51 -88 -67 -183 -72 -142 -7 -220 29 -269 124 -21 41 -26 66 -28 153 -5 124 8 175 55 231 59 68 96 81 234 76 84 -2 103 -7 142 -29z"/>
<path d="M245 1881 c-53 -32 -68 -67 -73 -162 -5 -91 6 -143 36 -175 65 -71 190 -53 232 31 8 17 16 67 18 111 5 100 -18 162 -70 194 -41 25 -103 26 -143 1z m161 -36 c37 -41 50 -112 39 -198 -10 -70 -27 -101 -69 -121 -42 -20 -76 -20 -122 -1 -49 20 -73 78 -74 171 0 79 16 128 52 160 32 30 47 34 98 29 36 -4 51 -12 76 -40z"/>
<path d="M820 1968 c-42 -23 -73 -48 -97 -80 -19 -27 -31 -48 -26 -47 4 0 24 22 44 48 48 63 110 92 209 98 76 5 186 -9 203 -26 6 -6 3 -24 -8 -46 -15 -34 -20 -36 -48 -31 -121 24 -165 17 -220 -33 -41 -37 -57 -83 -57 -163 0 -81 16 -124 59 -161 28 -23 42 -27 96 -27 70 0 75 5 75 70 0 61 -7 70 -54 70 -24 0 -45 2 -47 4 -3 3 -3 23 -1 46 l4 41 107 -3 106 -3 0 -145 0 -145 -29 -14 c-16 -7 -74 -16 -131 -18 -212 -11 -303 63 -324 265 -7 67 -9 70 -10 27 -1 -64 23 -158 51 -199 33 -45 56 -63 118 -87 48 -19 68 -21 165 -16 61 3 125 12 143 19 l32 12 0 158 0 158 -119 0 -119 0 -4 -42 c-7 -62 4 -78 48 -71 42 7 54 -5 54 -57 0 -57 -10 -64 -82 -57 -55 5 -66 9 -90 38 -44 52 -51 186 -13 259 38 73 114 89 255 55 22 -5 27 -1 43 38 10 24 15 50 12 58 -9 23 -86 39 -189 39 -87 0 -99 -3 -156 -32z"/>
<path d="M686 1815 c-3 -9 -6 -29 -5 -43 1 -22 3 -19 10 12 10 40 6 60 -5 31z"/>
</g>
</g>
  <g id="id8:id8" transform="matrix(1.25,0,0,1.25,0.0,0.0)"><g transform="translate(0.000000,82.400000) scale(0.040000,-0.040000)" fill="#7c94a5" stroke="none">
<path d="M1516 2045 c-10 -8 -80 -49 -155 -91 -75 -43 -139 -82 -143 -88 -4 -6 -8 -120 -8 -253 l0 -243 -121 0 c-142 0 -175 -11 -208 -70 -12 -22 -27 -40 -32 -40 -5 0 -21 -11 -34 -25 -23 -22 -25 -32 -25 -117 0 -103 9 -127 60 -153 28 -14 48 -50 36 -63 -4 -3 -19 7 -34 21 l-28 27 -177 0 -177 0 -54 -57 c-166 -178 -346 -379 -346 -386 0 -16 32 -19 49 -3 10 9 21 16 24 16 4 0 6 -102 5 -227 l-3 -228 -73 -3 c-69 -3 -73 -4 -70 -25 l3 -22 1075 -3 c591 -1 1085 0 1098 3 13 3 22 13 22 25 0 18 -7 20 -65 20 l-65 0 0 859 0 859 -242 141 c-146 85 -251 141 -267 141 -14 0 -35 -7 -45 -15z m243 -135 c105 -60 208 -121 231 -135 l40 -26 -2 -842 -3 -842 -207 -3 -208 -2 0 413 c0 308 -3 416 -12 425 -7 7 -34 12 -60 12 l-49 0 15 27 c12 24 19 27 57 25 77 -4 99 31 99 156 0 86 -1 91 -30 122 -38 41 -42 105 -8 151 21 28 21 32 7 57 -29 52 -119 34 -119 -23 0 -12 9 -34 21 -48 15 -20 19 -38 17 -69 -4 -53 -18 -57 -43 -11 -29 53 -74 73 -168 73 l-77 0 2 237 3 237 145 87 c80 48 148 88 152 88 4 1 92 -48 197 -109z m-161 -487 c5 -17 -26 -29 -40 -15 -6 6 -7 15 -3 22 9 14 37 9 43 -7z m-143 -128 c24 -23 25 -28 25 -175 l0 -152 -29 -29 -29 -29 -139 -2 c-76 -1 -181 -1 -233 1 -87 2 -97 5 -117 27 -22 24 -23 34 -23 175 0 145 6 183 34 201 6 4 118 8 249 8 l238 0 24 -25z m120 -76 c4 -6 13 -8 20 -5 18 6 25 -25 25 -112 0 -57 -3 -74 -16 -79 -26 -10 -35 17 -32 95 2 39 0 72 -4 72 -5 0 -8 -36 -8 -79 0 -70 3 -82 21 -95 l22 -15 -24 1 c-48 3 -59 24 -59 111 0 61 4 85 17 99 18 21 29 23 38 7z m-705 -104 c0 -83 -3 -105 -14 -105 -8 0 -17 7 -20 16 -10 26 -7 154 4 175 22 40 30 17 30 -86z m31 -312 c46 -54 114 -132 151 -174 38 -42 68 -79 68 -82 0 -4 -59 -7 -132 -7 l-131 0 -72 75 c-39 42 -69 77 -68 79 2 2 -16 21 -41 44 -24 22 -42 42 -40 44 2 2 -19 26 -46 53 -28 27 -50 53 -50 57 0 4 62 8 139 8 l138 0 84 -97z m-278 -70 l137 -151 0 -261 0 -261 -285 0 -285 0 0 263 0 262 138 152 c75 84 142 151 147 150 6 -1 72 -70 148 -154z m945 -270 l-3 -408 -155 -3 c-85 -2 -170 0 -187 3 l-33 6 0 239 0 240 -107 121 c-162 183 -162 183 -163 197 0 9 71 12 325 12 l325 0 -2 -407z m-743 37 c4 -6 68 -10 161 -10 l154 0 0 -215 0 -215 -165 2 -166 3 -2 223 c-2 205 1 239 18 212z"/>
<path d="M1020 1192 c-28 -22 -22 -65 11 -83 52 -28 105 46 59 83 -12 10 -28 18 -35 18 -7 0 -23 -8 -35 -18z"/>
<path d="M1317 1192 c-23 -26 -21 -58 5 -76 29 -21 51 -20 71 2 22 24 21 55 -1 75 -24 22 -55 21 -75 -1z"/>
<path d="M1256 1035 c-21 -32 -70 -34 -103 -3 -29 27 -52 13 -33 -21 13 -25 48 -41 90 -41 38 0 96 50 87 73 -9 24 -22 21 -41 -8z"/>
<path d="M462 430 c0 -19 2 -27 5 -17 2 9 2 25 0 35 -3 9 -5 1 -5 -18z"/>
<path d="M492 430 c0 -19 2 -27 5 -17 2 9 2 25 0 35 -3 9 -5 1 -5 -18z"/>
<path d="M360 390 c0 -5 5 -10 11 -10 5 0 7 5 4 10 -3 6 -8 10 -11 10 -2 0 -4 -4 -4 -10z"/>
<path d="M585 390 c-3 -5 -1 -10 4 -10 6 0 11 5 11 10 0 6 -2 10 -4 10 -3 0 -8 -4 -11 -10z"/>
<path d="M366 342 c-2 -4 12 -6 32 -4 62 6 69 10 20 11 -26 0 -49 -3 -52 -7z"/>
<path d="M523 343 c15 -2 39 -2 55 0 15 2 2 4 -28 4 -30 0 -43 -2 -27 -4z"/>
<path d="M462 300 c0 -19 2 -27 5 -17 2 9 2 25 0 35 -3 9 -5 1 -5 -18z"/>
<path d="M491 314 c0 -11 3 -14 6 -6 3 7 2 16 -1 19 -3 4 -6 -2 -5 -13z"/>
<path d="M367 248 c2 -5 22 -8 43 -8 21 0 41 3 43 8 3 4 -17 7 -43 7 -26 0 -46 -3 -43 -7z"/>
<path d="M507 248 c2 -5 22 -8 43 -8 21 0 41 3 43 8 3 4 -17 7 -43 7 -26 0 -46 -3 -43 -7z"/>
<path d="M163 1976 c-57 -27 -106 -84 -123 -145 -38 -135 -8 -311 64 -373 60 -52 96 -63 211 -63 86 0 117 4 142 18 104 56 145 136 145 282 0 114 -25 187 -82 239 -60 54 -99 66 -209 66 -80 0 -104 -4 -148 -24z m310 -19 c89 -53 122 -135 114 -285 -5 -106 -20 -150 -65 -198 -47 -51 -88 -67 -183 -72 -142 -7 -220 29 -269 124 -21 41 -26 66 -28 153 -5 124 8 175 55 231 59 68 96 81 234 76 84 -2 103 -7 142 -29z"/>
<path d="M245 1881 c-53 -32 -68 -67 -73 -162 -5 -91 6 -143 36 -175 65 -71 190 -53 232 31 8 17 16 67 18 111 5 100 -18 162 -70 194 -41 25 -103 26 -143 1z m161 -36 c37 -41 50 -112 39 -198 -10 -70 -27 -101 -69 -121 -42 -20 -76 -20 -122 -1 -49 20 -73 78 -74 171 0 79 16 128 52 160 32 30 47 34 98 29 36 -4 51 -12 76 -40z"/>
<path d="M820 1968 c-42 -23 -73 -48 -97 -80 -19 -27 -31 -48 -26 -47 4 0 24 22 44 48 48 63 110 92 209 98 76 5 186 -9 203 -26 6 -6 3 -24 -8 -46 -15 -34 -20 -36 -48 -31 -121 24 -165 17 -220 -33 -41 -37 -57 -83 -57 -163 0 -81 16 -124 59 -161 28 -23 42 -27 96 -27 70 0 75 5 75 70 0 61 -7 70 -54 70 -24 0 -45 2 -47 4 -3 3 -3 23 -1 46 l4 41 107 -3 106 -3 0 -145 0 -145 -29 -14 c-16 -7 -74 -16 -131 -18 -212 -11 -303 63 -324 265 -7 67 -9 70 -10 27 -1 -64 23 -158 51 -199 33 -45 56 -63 118 -87 48 -19 68 -21 165 -16 61 3 125 12 143 19 l32 12 0 158 0 158 -119 0 -119 0 -4 -42 c-7 -62 4 -78 48 -71 42 7 54 -5 54 -57 0 -57 -10 -64 -82 -57 -55 5 -66 9 -90 38 -44 52 -51 186 -13 259 38 73 114 89 255 55 22 -5 27 -1 43 38 10 24 15 50 12 58 -9 23 -86 39 -189 39 -87 0 -99 -3 -156 -32z"/>
<path d="M686 1815 c-3 -9 -6 -29 -5 -43 1 -22 3 -19 10 12 10 40 6 60 -5 31z"/>
</g>
</g>
  <g id="id9:id9" transform="matrix(1.25,0,0,1.25,0.0,0.0)"><g transform="translate(0.000000,82.400000) scale(0.040000,-0.040000)" fill="#6e7b8a" stroke="none">
<path d="M1516 2045 c-10 -8 -80 -49 -155 -91 -75 -43 -139 -82 -143 -88 -4 -6 -8 -120 -8 -253 l0 -243 -121 0 c-142 0 -175 -11 -208 -70 -12 -22 -27 -40 -32 -40 -5 0 -21 -11 -34 -25 -23 -22 -25 -32 -25 -117 0 -103 9 -127 60 -153 28 -14 48 -50 36 -63 -4 -3 -19 7 -34 21 l-28 27 -177 0 -177 0 -54 -57 c-166 -178 -346 -379 -346 -386 0 -16 32 -19 49 -3 10 9 21 16 24 16 4 0 6 -102 5 -227 l-3 -228 -73 -3 c-69 -3 -73 -4 -70 -25 l3 -22 1075 -3 c591 -1 1085 0 1098 3 13 3 22 13 22 25 0 18 -7 20 -65 20 l-65 0 0 859 0 859 -242 141 c-146 85 -251 141 -267 141 -14 0 -35 -7 -45 -15z m243 -135 c105 -60 208 -121 231 -135 l40 -26 -2 -842 -3 -842 -207 -3 -208 -2 0 413 c0 308 -3 416 -12 425 -7 7 -34 12 -60 12 l-49 0 15 27 c12 24 19 27 57 25 77 -4 99 31 99 156 0 86 -1 91 -30 122 -38 41 -42 105 -8 151 21 28 21 32 7 57 -29 52 -119 34 -119 -23 0 -12 9 -34 21 -48 15 -20 19 -38 17 -69 -4 -53 -18 -57 -43 -11 -29 53 -74 73 -168 73 l-77 0 2 237 3 237 145 87 c80 48 148 88 152 88 4 1 92 -48 197 -109z m-161 -487 c5 -17 -26 -29 -40 -15 -6 6 -7 15 -3 22 9 14 37 9 43 -7z m-143 -128 c24 -23 25 -28 25 -175 l0 -152 -29 -29 -29 -29 -139 -2 c-76 -1 -181 -1 -233 1 -87 2 -97 5 -117 27 -22 24 -23 34 -23 175 0 145 6 183 34 201 6 4 118 8 249 8 l238 0 24 -25z m120 -76 c4 -6 13 -8 20 -5 18 6 25 -25 25 -112 0 -57 -3 -74 -16 -79 -26 -10 -35 17 -32 95 2 39 0 72 -4 72 -5 0 -8 -36 -8 -79 0 -70 3 -82 21 -95 l22 -15 -24 1 c-48 3 -59 24 -59 111 0 61 4 85 17 99 18 21 29 23 38 7z m-705 -104 c0 -83 -3 -105 -14 -105 -8 0 -17 7 -20 16 -10 26 -7 154 4 175 22 40 30 17 30 -86z m31 -312 c46 -54 114 -132 151 -174 38 -42 68 -79 68 -82 0 -4 -59 -7 -132 -7 l-131 0 -72 75 c-39 42 -69 77 -68 79 2 2 -16 21 -41 44 -24 22 -42 42 -40 44 2 2 -19 26 -46 53 -28 27 -50 53 -50 57 0 4 62 8 139 8 l138 0 84 -97z m-278 -70 l137 -151 0 -261 0 -261 -285 0 -285 0 0 263 0 262 138 152 c75 84 142 151 147 150 6 -1 72 -70 148 -154z m945 -270 l-3 -408 -155 -3 c-85 -2 -170 0 -187 3 l-33 6 0 239 0 240 -107 121 c-162 183 -162 183 -163 197 0 9 71 12 325 12 l325 0 -2 -407z m-743 37 c4 -6 68 -10 161 -10 l154 0 0 -215 0 -215 -165 2 -166 3 -2 223 c-2 205 1 239 18 212z"/>
<path d="M1020 1192 c-28 -22 -22 -65 11 -83 52 -28 105 46 59 83 -12 10 -28 18 -35 18 -7 0 -23 -8 -35 -18z"/>
<path d="M1317 1192 c-23 -26 -21 -58 5 -76 29 -21 51 -20 71 2 22 24 21 55 -1 75 -24 22 -55 21 -75 -1z"/>
<path d="M1256 1035 c-21 -32 -70 -34 -103 -3 -29 27 -52 13 -33 -21 13 -25 48 -41 90 -41 38 0 96 50 87 73 -9 24 -22 21 -41 -8z"/>
<path d="M462 430 c0 -19 2 -27 5 -17 2 9 2 25 0 35 -3 9 -5 1 -5 -18z"/>
<path d="M492 430 c0 -19 2 -27 5 -17 2 9 2 25 0 35 -3 9 -5 1 -5 -18z"/>
<path d="M360 390 c0 -5 5 -10 11 -10 5 0 7 5 4 10 -3 6 -8 10 -11 10 -2 0 -4 -4 -4 -10z"/>
<path d="M585 390 c-3 -5 -1 -10 4 -10 6 0 11 5 11 10 0 6 -2 10 -4 10 -3 0 -8 -4 -11 -10z"/>
<path d="M366 342 c-2 -4 12 -6 32 -4 62 6 69 10 20 11 -26 0 -49 -3 -52 -7z"/>
<path d="M523 343 c15 -2 39 -2 55 0 15 2 2 4 -28 4 -30 0 -43 -2 -27 -4z"/>
<path d="M462 300 c0 -19 2 -27 5 -17 2 9 2 25 0 35 -3 9 -5 1 -5 -18z"/>
<path d="M491 314 c0 -11 3 -14 6 -6 3 7 2 16 -1 19 -3 4 -6 -2 -5 -13z"/>
<path d="M367 248 c2 -5 22 -8 43 -8 21 0 41 3 43 8 3 4 -17 7 -43 7 -26 0 -46 -3 -43 -7z"/>
<path d="M507 248 c2 -5 22 -8 43 -8 21 0 41 3 43 8 3 4 -17 7 -43 7 -26 0 -46 -3 -43 -7z"/>
<path d="M163 1976 c-57 -27 -106 -84 -123 -145 -38 -135 -8 -311 64 -373 60 -52 96 -63 211 -63 86 0 117 4 142 18 104 56 145 136 145 282 0 114 -25 187 -82 239 -60 54 -99 66 -209 66 -80 0 -104 -4 -148 -24z m310 -19 c89 -53 122 -135 114 -285 -5 -106 -20 -150 -65 -198 -47 -51 -88 -67 -183 -72 -142 -7 -220 29 -269 124 -21 41 -26 66 -28 153 -5 124 8 175 55 231 59 68 96 81 234 76 84 -2 103 -7 142 -29z"/>
<path d="M245 1881 c-53 -32 -68 -67 -73 -162 -5 -91 6 -143 36 -175 65 -71 190 -53 232 31 8 17 16 67 18 111 5 100 -18 162 -70 194 -41 25 -103 26 -143 1z m161 -36 c37 -41 50 -112 39 -198 -10 -70 -27 -101 -69 -121 -42 -20 -76 -20 -122 -1 -49 20 -73 78 -74 171 0 79 16 128 52 160 32 30 47 34 98 29 36 -4 51 -12 76 -40z"/>
<path d="M820 1968 c-42 -23 -73 -48 -97 -80 -19 -27 -31 -48 -26 -47 4 0 24 22 44 48 48 63 110 92 209 98 76 5 186 -9 203 -26 6 -6 3 -24 -8 -46 -15 -34 -20 -36 -48 -31 -121 24 -165 17 -220 -33 -41 -37 -57 -83 -57 -163 0 -81 16 -124 59 -161 28 -23 42 -27 96 -27 70 0 75 5 75 70 0 61 -7 70 -54 70 -24 0 -45 2 -47 4 -3 3 -3 23 -1 46 l4 41 107 -3 106 -3 0 -145 0 -145 -29 -14 c-16 -7 -74 -16 -131 -18 -212 -11 -303 63 -324 265 -7 67 -9 70 -10 27 -1 -64 23 -158 51 -199 33 -45 56 -63 118 -87 48 -19 68 -21 165 -16 61 3 125 12 143 19 l32 12 0 158 0 158 -119 0 -119 0 -4 -42 c-7 -62 4 -78 48 -71 42 7 54 -5 54 -57 0 -57 -10 -64 -82 -57 -55 5 -66 9 -90 38 -44 52 -51 186 -13 259 38 73 114 89 255 55 22 -5 27 -1 43 38 10 24 15 50 12 58 -9 23 -86 39 -189 39 -87 0 -99 -3 -156 -32z"/>
<path d="M686 1815 c-3 -9 -6 -29 -5 -43 1 -22 3 -19 10 12 10 40 6 60 -5 31z"/>
</g>
</g>
  <g id="id10:id10" transform="matrix(1.25,0,0,1.25,0.0,0.0)"><g transform="translate(0.000000,82.400000) scale(0.040000,-0.040000)" fill="#656c7a" stroke="none">
<path d="M1516 2045 c-10 -8 -80 -49 -155 -91 -75 -43 -139 -82 -143 -88 -4 -6 -8 -120 -8 -253 l0 -243 -121 0 c-142 0 -175 -11 -208 -70 -12 -22 -27 -40 -32 -40 -5 0 -21 -11 -34 -25 -23 -22 -25 -32 -25 -117 0 -103 9 -127 60 -153 28 -14 48 -50 36 -63 -4 -3 -19 7 -34 21 l-28 27 -177 0 -177 0 -54 -57 c-166 -178 -346 -379 -346 -386 0 -16 32 -19 49 -3 10 9 21 16 24 16 4 0 6 -102 5 -227 l-3 -228 -73 -3 c-69 -3 -73 -4 -70 -25 l3 -22 1075 -3 c591 -1 1085 0 1098 3 13 3 22 13 22 25 0 18 -7 20 -65 20 l-65 0 0 859 0 859 -242 141 c-146 85 -251 141 -267 141 -14 0 -35 -7 -45 -15z m243 -135 c105 -60 208 -121 231 -135 l40 -26 -2 -842 -3 -842 -207 -3 -208 -2 0 413 c0 308 -3 416 -12 425 -7 7 -34 12 -60 12 l-49 0 15 27 c12 24 19 27 57 25 77 -4 99 31 99 156 0 86 -1 91 -30 122 -38 41 -42 105 -8 151 21 28 21 32 7 57 -29 52 -119 34 -119 -23 0 -12 9 -34 21 -48 15 -20 19 -38 17 -69 -4 -53 -18 -57 -43 -11 -29 53 -74 73 -168 73 l-77 0 2 237 3 237 145 87 c80 48 148 88 152 88 4 1 92 -48 197 -109z m-161 -487 c5 -17 -26 -29 -40 -15 -6 6 -7 15 -3 22 9 14 37 9 43 -7z m-143 -128 c24 -23 25 -28 25 -175 l0 -152 -29 -29 -29 -29 -139 -2 c-76 -1 -181 -1 -233 1 -87 2 -97 5 -117 27 -22 24 -23 34 -23 175 0 145 6 183 34 201 6 4 118 8 249 8 l238 0 24 -25z m120 -76 c4 -6 13 -8 20 -5 18 6 25 -25 25 -112 0 -57 -3 -74 -16 -79 -26 -10 -35 17 -32 95 2 39 0 72 -4 72 -5 0 -8 -36 -8 -79 0 -70 3 -82 21 -95 l22 -15 -24 1 c-48 3 -59 24 -59 111 0 61 4 85 17 99 18 21 29 23 38 7z m-705 -104 c0 -83 -3 -105 -14 -105 -8 0 -17 7 -20 16 -10 26 -7 154 4 175 22 40 30 17 30 -86z m31 -312 c46 -54 114 -132 151 -174 38 -42 68 -79 68 -82 0 -4 -59 -7 -132 -7 l-131 0 -72 75 c-39 42 -69 77 -68 79 2 2 -16 21 -41 44 -24 22 -42 42 -40 44 2 2 -19 26 -46 53 -28 27 -50 53 -50 57 0 4 62 8 139 8 l138 0 84 -97z m-278 -70 l137 -151 0 -261 0 -261 -285 0 -285 0 0 263 0 262 138 152 c75 84 142 151 147 150 6 -1 72 -70 148 -154z m945 -270 l-3 -408 -155 -3 c-85 -2 -170 0 -187 3 l-33 6 0 239 0 240 -107 121 c-162 183 -162 183 -163 197 0 9 71 12 325 12 l325 0 -2 -407z m-743 37 c4 -6 68 -10 161 -10 l154 0 0 -215 0 -215 -165 2 -166 3 -2 223 c-2 205 1 239 18 212z"/>
<path d="M1020 1192 c-28 -22 -22 -65 11 -83 52 -28 105 46 59 83 -12 10 -28 18 -35 18 -7 0 -23 -8 -35 -18z"/>
<path d="M1317 1192 c-23 -26 -21 -58 5 -76 29 -21 51 -20 71 2 22 24 21 55 -1 75 -24 22 -55 21 -75 -1z"/>
<path d="M1256 1035 c-21 -32 -70 -34 -103 -3 -29 27 -52 13 -33 -21 13 -25 48 -41 90 -41 38 0 96 50 87 73 -9 24 -22 21 -41 -8z"/>
<path d="M462 430 c0 -19 2 -27 5 -17 2 9 2 25 0 35 -3 9 -5 1 -5 -18z"/>
<path d="M492 430 c0 -19 2 -27 5 -17 2 9 2 25 0 35 -3 9 -5 1 -5 -18z"/>
<path d="M360 390 c0 -5 5 -10 11 -10 5 0 7 5 4 10 -3 6 -8 10 -11 10 -2 0 -4 -4 -4 -10z"/>
<path d="M585 390 c-3 -5 -1 -10 4 -10 6 0 11 5 11 10 0 6 -2 10 -4 10 -3 0 -8 -4 -11 -10z"/>
<path d="M366 342 c-2 -4 12 -6 32 -4 62 6 69 10 20 11 -26 0 -49 -3 -52 -7z"/>
<path d="M523 343 c15 -2 39 -2 55 0 15 2 2 4 -28 4 -30 0 -43 -2 -27 -4z"/>
<path d="M462 300 c0 -19 2 -27 5 -17 2 9 2 25 0 35 -3 9 -5 1 -5 -18z"/>
<path d="M491 314 c0 -11 3 -14 6 -6 3 7 2 16 -1 19 -3 4 -6 -2 -5 -13z"/>
<path d="M367 248 c2 -5 22 -8 43 -8 21 0 41 3 43 8 3 4 -17 7 -43 7 -26 0 -46 -3 -43 -7z"/>
<path d="M507 248 c2 -5 22 -8 43 -8 21 0 41 3 43 8 3 4 -17 7 -43 7 -26 0 -46 -3 -43 -7z"/>
<path d="M163 1976 c-57 -27 -106 -84 -123 -145 -38 -135 -8 -311 64 -373 60 -52 96 -63 211 -63 86 0 117 4 142 18 104 56 145 136 145 282 0 114 -25 187 -82 239 -60 54 -99 66 -209 66 -80 0 -104 -4 -148 -24z m310 -19 c89 -53 122 -135 114 -285 -5 -106 -20 -150 -65 -198 -47 -51 -88 -67 -183 -72 -142 -7 -220 29 -269 124 -21 41 -26 66 -28 153 -5 124 8 175 55 231 59 68 96 81 234 76 84 -2 103 -7 142 -29z"/>
<path d="M245 1881 c-53 -32 -68 -67 -73 -162 -5 -91 6 -143 36 -175 65 -71 190 -53 232 31 8 17 16 67 18 111 5 100 -18 162 -70 194 -41 25 -103 26 -143 1z m161 -36 c37 -41 50 -112 39 -198 -10 -70 -27 -101 -69 -121 -42 -20 -76 -20 -122 -1 -49 20 -73 78 -74 171 0 79 16 128 52 160 32 30 47 34 98 29 36 -4 51 -12 76 -40z"/>
<path d="M820 1968 c-42 -23 -73 -48 -97 -80 -19 -27 -31 -48 -26 -47 4 0 24 22 44 48 48 63 110 92 209 98 76 5 186 -9 203 -26 6 -6 3 -24 -8 -46 -15 -34 -20 -36 -48 -31 -121 24 -165 17 -220 -33 -41 -37 -57 -83 -57 -163 0 -81 16 -124 59 -161 28 -23 42 -27 96 -27 70 0 75 5 75 70 0 61 -7 70 -54 70 -24 0 -45 2 -47 4 -3 3 -3 23 -1 46 l4 41 107 -3 106 -3 0 -145 0 -145 -29 -14 c-16 -7 -74 -16 -131 -18 -212 -11 -303 63 -324 265 -7 67 -9 70 -10 27 -1 -64 23 -158 51 -199 33 -45 56 -63 118 -87 48 -19 68 -21 165 -16 61 3 125 12 143 19 l32 12 0 158 0 158 -119 0 -119 0 -4 -42 c-7 -62 4 -78 48 -71 42 7 54 -5 54 -57 0 -57 -10 -64 -82 -57 -55 5 -66 9 -90 38 -44 52 -51 186 -13 259 38 73 114 89 255 55 22 -5 27 -1 43 38 10 24 15 50 12 58 -9 23 -86 39 -189 39 -87 0 -99 -3 -156 -32z"/>
<path d="M686 1815 c-3 -9 -6 -29 -5 -43 1 -22 3 -19 10 12 10 40 6 60 -5 31z"/>
</g>
</g>
  <g id="id11:id11" transform="matrix(1.25,0,0,1.25,0.0,0.0)"><g transform="translate(0.000000,82.400000) scale(0.040000,-0.040000)" fill="#4b5e70" stroke="none">
<path d="M1516 2045 c-10 -8 -80 -49 -155 -91 -75 -43 -139 -82 -143 -88 -4 -6 -8 -120 -8 -253 l0 -243 -121 0 c-142 0 -175 -11 -208 -70 -12 -22 -27 -40 -32 -40 -5 0 -21 -11 -34 -25 -23 -22 -25 -32 -25 -117 0 -103 9 -127 60 -153 28 -14 48 -50 36 -63 -4 -3 -19 7 -34 21 l-28 27 -177 0 -177 0 -54 -57 c-166 -178 -346 -379 -346 -386 0 -16 32 -19 49 -3 10 9 21 16 24 16 4 0 6 -102 5 -227 l-3 -228 -73 -3 c-69 -3 -73 -4 -70 -25 l3 -22 1075 -3 c591 -1 1085 0 1098 3 13 3 22 13 22 25 0 18 -7 20 -65 20 l-65 0 0 859 0 859 -242 141 c-146 85 -251 141 -267 141 -14 0 -35 -7 -45 -15z m243 -135 c105 -60 208 -121 231 -135 l40 -26 -2 -842 -3 -842 -207 -3 -208 -2 0 413 c0 308 -3 416 -12 425 -7 7 -34 12 -60 12 l-49 0 15 27 c12 24 19 27 57 25 77 -4 99 31 99 156 0 86 -1 91 -30 122 -38 41 -42 105 -8 151 21 28 21 32 7 57 -29 52 -119 34 -119 -23 0 -12 9 -34 21 -48 15 -20 19 -38 17 -69 -4 -53 -18 -57 -43 -11 -29 53 -74 73 -168 73 l-77 0 2 237 3 237 145 87 c80 48 148 88 152 88 4 1 92 -48 197 -109z m-161 -487 c5 -17 -26 -29 -40 -15 -6 6 -7 15 -3 22 9 14 37 9 43 -7z m-143 -128 c24 -23 25 -28 25 -175 l0 -152 -29 -29 -29 -29 -139 -2 c-76 -1 -181 -1 -233 1 -87 2 -97 5 -117 27 -22 24 -23 34 -23 175 0 145 6 183 34 201 6 4 118 8 249 8 l238 0 24 -25z m120 -76 c4 -6 13 -8 20 -5 18 6 25 -25 25 -112 0 -57 -3 -74 -16 -79 -26 -10 -35 17 -32 95 2 39 0 72 -4 72 -5 0 -8 -36 -8 -79 0 -70 3 -82 21 -95 l22 -15 -24 1 c-48 3 -59 24 -59 111 0 61 4 85 17 99 18 21 29 23 38 7z m-705 -104 c0 -83 -3 -105 -14 -105 -8 0 -17 7 -20 16 -10 26 -7 154 4 175 22 40 30 17 30 -86z m31 -312 c46 -54 114 -132 151 -174 38 -42 68 -79 68 -82 0 -4 -59 -7 -132 -7 l-131 0 -72 75 c-39 42 -69 77 -68 79 2 2 -16 21 -41 44 -24 22 -42 42 -40 44 2 2 -19 26 -46 53 -28 27 -50 53 -50 57 0 4 62 8 139 8 l138 0 84 -97z m-278 -70 l137 -151 0 -261 0 -261 -285 0 -285 0 0 263 0 262 138 152 c75 84 142 151 147 150 6 -1 72 -70 148 -154z m945 -270 l-3 -408 -155 -3 c-85 -2 -170 0 -187 3 l-33 6 0 239 0 240 -107 121 c-162 183 -162 183 -163 197 0 9 71 12 325 12 l325 0 -2 -407z m-743 37 c4 -6 68 -10 161 -10 l154 0 0 -215 0 -215 -165 2 -166 3 -2 223 c-2 205 1 239 18 212z"/>
<path d="M1020 1192 c-28 -22 -22 -65 11 -83 52 -28 105 46 59 83 -12 10 -28 18 -35 18 -7 0 -23 -8 -35 -18z"/>
<path d="M1317 1192 c-23 -26 -21 -58 5 -76 29 -21 51 -20 71 2 22 24 21 55 -1 75 -24 22 -55 21 -75 -1z"/>
<path d="M1256 1035 c-21 -32 -70 -34 -103 -3 -29 27 -52 13 -33 -21 13 -25 48 -41 90 -41 38 0 96 50 87 73 -9 24 -22 21 -41 -8z"/>
<path d="M462 430 c0 -19 2 -27 5 -17 2 9 2 25 0 35 -3 9 -5 1 -5 -18z"/>
<path d="M492 430 c0 -19 2 -27 5 -17 2 9 2 25 0 35 -3 9 -5 1 -5 -18z"/>
<path d="M360 390 c0 -5 5 -10 11 -10 5 0 7 5 4 10 -3 6 -8 10 -11 10 -2 0 -4 -4 -4 -10z"/>
<path d="M585 390 c-3 -5 -1 -10 4 -10 6 0 11 5 11 10 0 6 -2 10 -4 10 -3 0 -8 -4 -11 -10z"/>
<path d="M366 342 c-2 -4 12 -6 32 -4 62 6 69 10 20 11 -26 0 -49 -3 -52 -7z"/>
<path d="M523 343 c15 -2 39 -2 55 0 15 2 2 4 -28 4 -30 0 -43 -2 -27 -4z"/>
<path d="M462 300 c0 -19 2 -27 5 -17 2 9 2 25 0 35 -3 9 -5 1 -5 -18z"/>
<path d="M491 314 c0 -11 3 -14 6 -6 3 7 2 16 -1 19 -3 4 -6 -2 -5 -13z"/>
<path d="M367 248 c2 -5 22 -8 43 -8 21 0 41 3 43 8 3 4 -17 7 -43 7 -26 0 -46 -3 -43 -7z"/>
<path d="M507 248 c2 -5 22 -8 43 -8 21 0 41 3 43 8 3 4 -17 7 -43 7 -26 0 -46 -3 -43 -7z"/>
<path d="M163 1976 c-57 -27 -106 -84 -123 -145 -38 -135 -8 -311 64 -373 60 -52 96 -63 211 -63 86 0 117 4 142 18 104 56 145 136 145 282 0 114 -25 187 -82 239 -60 54 -99 66 -209 66 -80 0 -104 -4 -148 -24z m310 -19 c89 -53 122 -135 114 -285 -5 -106 -20 -150 -65 -198 -47 -51 -88 -67 -183 -72 -142 -7 -220 29 -269 124 -21 41 -26 66 -28 153 -5 124 8 175 55 231 59 68 96 81 234 76 84 -2 103 -7 142 -29z"/>
<path d="M245 1881 c-53 -32 -68 -67 -73 -162 -5 -91 6 -143 36 -175 65 -71 190 -53 232 31 8 17 16 67 18 111 5 100 -18 162 -70 194 -41 25 -103 26 -143 1z m161 -36 c37 -41 50 -112 39 -198 -10 -70 -27 -101 -69 -121 -42 -20 -76 -20 -122 -1 -49 20 -73 78 -74 171 0 79 16 128 52 160 32 30 47 34 98 29 36 -4 51 -12 76 -40z"/>
<path d="M820 1968 c-42 -23 -73 -48 -97 -80 -19 -27 -31 -48 -26 -47 4 0 24 22 44 48 48 63 110 92 209 98 76 5 186 -9 203 -26 6 -6 3 -24 -8 -46 -15 -34 -20 -36 -48 -31 -121 24 -165 17 -220 -33 -41 -37 -57 -83 -57 -163 0 -81 16 -124 59 -161 28 -23 42 -27 96 -27 70 0 75 5 75 70 0 61 -7 70 -54 70 -24 0 -45 2 -47 4 -3 3 -3 23 -1 46 l4 41 107 -3 106 -3 0 -145 0 -145 -29 -14 c-16 -7 -74 -16 -131 -18 -212 -11 -303 63 -324 265 -7 67 -9 70 -10 27 -1 -64 23 -158 51 -199 33 -45 56 -63 118 -87 48 -19 68 -21 165 -16 61 3 125 12 143 19 l32 12 0 158 0 158 -119 0 -119 0 -4 -42 c-7 -62 4 -78 48 -71 42 7 54 -5 54 -57 0 -57 -10 -64 -82 -57 -55 5 -66 9 -90 38 -44 52 -51 186 -13 259 38 73 114 89 255 55 22 -5 27 -1 43 38 10 24 15 50 12 58 -9 23 -86 39 -189 39 -87 0 -99 -3 -156 -32z"/>
<path d="M686 1815 c-3 -9 -6 -29 -5 -43 1 -22 3 -19 10 12 10 40 6 60 -5 31z"/>
</g>
</g>
  <g id="id12:id12" transform="matrix(1.25,0,0,1.25,0.0,0.0)"><g transform="translate(0.000000,82.400000) scale(0.040000,-0.040000)" fill="#20437e" stroke="none">
<path d="M1516 2045 c-10 -8 -80 -49 -155 -91 -75 -43 -139 -82 -143 -88 -4 -6 -8 -120 -8 -253 l0 -243 -121 0 c-142 0 -175 -11 -208 -70 -12 -22 -27 -40 -32 -40 -5 0 -21 -11 -34 -25 -23 -22 -25 -32 -25 -117 0 -103 9 -127 60 -153 28 -14 48 -50 36 -63 -4 -3 -19 7 -34 21 l-28 27 -177 0 -177 0 -54 -57 c-166 -178 -346 -379 -346 -386 0 -16 32 -19 49 -3 10 9 21 16 24 16 4 0 6 -102 5 -227 l-3 -228 -73 -3 c-69 -3 -73 -4 -70 -25 l3 -22 1075 -3 c591 -1 1085 0 1098 3 13 3 22 13 22 25 0 18 -7 20 -65 20 l-65 0 0 859 0 859 -242 141 c-146 85 -251 141 -267 141 -14 0 -35 -7 -45 -15z m243 -135 c105 -60 208 -121 231 -135 l40 -26 -2 -842 -3 -842 -207 -3 -208 -2 0 413 c0 308 -3 416 -12 425 -7 7 -34 12 -60 12 l-49 0 15 27 c12 24 19 27 57 25 77 -4 99 31 99 156 0 86 -1 91 -30 122 -38 41 -42 105 -8 151 21 28 21 32 7 57 -29 52 -119 34 -119 -23 0 -12 9 -34 21 -48 15 -20 19 -38 17 -69 -4 -53 -18 -57 -43 -11 -29 53 -74 73 -168 73 l-77 0 2 237 3 237 145 87 c80 48 148 88 152 88 4 1 92 -48 197 -109z m-161 -487 c5 -17 -26 -29 -40 -15 -6 6 -7 15 -3 22 9 14 37 9 43 -7z m-143 -128 c24 -23 25 -28 25 -175 l0 -152 -29 -29 -29 -29 -139 -2 c-76 -1 -181 -1 -233 1 -87 2 -97 5 -117 27 -22 24 -23 34 -23 175 0 145 6 183 34 201 6 4 118 8 249 8 l238 0 24 -25z m128 -77 c34 -20 37 -27 37 -111 0 -62 -3 -79 -16 -84 -26 -10 -35 17 -32 95 2 39 0 72 -4 72 -13 0 -9 -158 3 -166 8 -4 8 -9 0 -17 -7 -7 -16 -5 -31 8 -17 15 -20 30 -20 98 0 61 4 85 17 99 19 21 17 21 46 6z m-713 -103 c0 -83 -3 -105 -14 -105 -8 0 -17 7 -20 16 -10 26 -7 154 4 175 22 40 30 17 30 -86z m31 -312 c46 -54 114 -132 151 -174 38 -42 68 -79 68 -82 0 -4 -59 -7 -132 -7 l-131 0 -72 75 c-39 42 -69 77 -68 79 2 2 -16 21 -41 44 -24 22 -42 42 -40 44 2 2 -19 26 -46 53 -28 27 -50 53 -50 57 0 4 62 8 139 8 l138 0 84 -97z m-405 69 c1 -7 0 -8 -3 -2 -9 18 -20 11 -84 -52 l-62 -63 59 67 c56 63 84 79 90 50z m1066 -413 l-2 -406 -170 -2 c-94 -1 -170 2 -169 6 1 4 1 187 0 406 l-1 397 -145 0 c-80 0 -145 -3 -145 -7 0 -5 15 -24 33 -43 61 -67 72 -87 15 -26 -32 33 -58 67 -58 74 0 11 58 13 323 10 l322 -3 -3 -406z m-1006 349 l29 -33 -32 29 c-31 28 -38 36 -30 36 2 0 16 -15 33 -32z m201 -478 l-2 -255 -2 254 -3 254 -86 96 -86 96 91 -95 90 -95 -2 -255z m-407 417 c0 -1 -24 -25 -52 -52 l-53 -50 50 53 c46 48 55 57 55 49z m792 -139 c64 -76 38 -55 -37 30 -38 42 -54 64 -36 47 18 -16 51 -51 73 -77z m-915 4 l-28 -29 3 -261 c2 -144 0 -262 -4 -262 -5 0 -8 118 -8 262 l0 262 27 28 c15 15 29 28 32 28 2 0 -7 -13 -22 -28z m980 -4 c-3 -8 -6 -5 -6 6 -1 11 2 17 5 13 3 -3 4 -12 1 -19z m-4 -312 c1 -130 -1 -236 -5 -236 -4 0 -9 110 -10 245 -2 134 1 240 5 236 5 -5 9 -115 10 -245z m-378 204 c4 -6 68 -10 161 -10 l154 0 0 -215 0 -215 -165 2 -166 3 -2 223 c-2 205 1 239 18 212z m-387 -7 c-10 -2 -28 -2 -40 0 -13 2 -5 4 17 4 22 1 32 -1 23 -4z m135 0 c-13 -2 -33 -2 -45 0 -13 2 -3 4 22 4 25 0 35 -2 23 -4z m-118 -63 c0 -44 -1 -45 -33 -48 -40 -4 -62 12 -62 43 0 47 10 56 54 53 l41 -3 0 -45z m35 5 c0 -25 -4 -45 -10 -45 -5 0 -10 20 -10 45 0 25 5 45 10 45 6 0 10 -20 10 -45z m108 7 c4 -40 -12 -62 -43 -62 -44 0 -55 10 -55 49 0 48 5 53 55 49 37 -3 40 -5 43 -36z m-251 -34 c-2 -13 -4 -3 -4 22 0 25 2 35 4 23 2 -13 2 -33 0 -45z m274 -11 c-8 -8 -11 2 -10 34 l1 44 10 -34 c6 -23 6 -37 -1 -44z m-188 -34 c-13 -2 -33 -2 -45 0 -13 2 -3 4 22 4 25 0 35 -2 23 -4z m150 0 c-13 -2 -35 -2 -50 0 -16 2 -5 4 22 4 28 0 40 -2 28 -4z m-236 -55 c-3 -7 -5 -2 -5 12 0 14 2 19 5 13 2 -7 2 -19 0 -25z m111 -10 l-3 -43 -45 0 c-42 0 -45 2 -48 28 -6 48 3 57 53 57 l46 0 -3 -42z m32 -3 c0 -25 -4 -45 -10 -45 -5 0 -10 20 -10 45 0 25 5 45 10 45 6 0 10 -20 10 -45z m108 3 l-3 -43 -45 0 -45 0 -3 43 -3 42 51 0 51 0 -3 -42z m19 -5 c-3 -10 -5 -2 -5 17 0 19 2 27 5 18 2 -10 2 -26 0 -35z m-49 -70 c-10 -2 -28 -2 -40 0 -13 2 -5 4 17 4 22 1 32 -1 23 -4z m-175 -160 c-29 -2 -78 -2 -110 0 -32 2 -8 3 52 3 61 0 87 -1 58 -3z m304 0 c-20 -2 -52 -2 -70 0 -17 2 0 4 38 4 39 0 53 -2 32 -4z"/>
<path d="M1020 1192 c-28 -22 -22 -65 11 -83 52 -28 105 46 59 83 -12 10 -28 18 -35 18 -7 0 -23 -8 -35 -18z"/>
<path d="M1317 1192 c-23 -26 -21 -58 5 -76 29 -21 51 -20 71 2 22 24 21 55 -1 75 -24 22 -55 21 -75 -1z"/>
<path d="M1256 1035 c-21 -32 -70 -34 -103 -3 -29 27 -52 13 -33 -21 13 -25 48 -41 90 -41 38 0 96 50 87 73 -9 24 -22 21 -41 -8z"/>
<path d="M163 1976 c-57 -27 -106 -84 -123 -145 -38 -135 -8 -311 64 -373 60 -52 96 -63 211 -63 86 0 117 4 142 18 104 56 145 136 145 282 0 114 -25 187 -82 239 -60 54 -99 66 -209 66 -80 0 -104 -4 -148 -24z m269 -6 c122 -35 187 -206 144 -373 -37 -140 -99 -187 -250 -187 -146 0 -211 33 -254 129 -21 48 -25 71 -25 161 -1 85 3 114 20 150 27 60 78 108 128 121 22 5 45 12 50 14 16 7 147 -3 187 -15z"/>
<path d="M249 1890 c-62 -33 -82 -79 -83 -190 -1 -79 3 -101 20 -130 42 -72 112 -96 187 -65 62 26 97 99 97 201 0 92 -37 164 -97 189 -47 20 -80 18 -124 -5z m157 -45 c37 -41 50 -112 39 -198 -10 -70 -27 -101 -69 -121 -42 -20 -76 -20 -122 -1 -49 20 -73 78 -74 171 0 79 16 128 52 160 32 30 47 34 98 29 36 -4 51 -12 76 -40z"/>
<path d="M822 1969 c-60 -30 -120 -93 -130 -137 -19 -84 -24 -160 -14 -213 21 -114 67 -174 161 -210 49 -19 70 -20 166 -16 61 3 125 12 143 19 l32 12 0 158 0 158 -119 0 -119 0 -4 -42 c-7 -62 4 -78 48 -71 42 7 54 -5 54 -57 0 -57 -10 -64 -82 -57 -55 5 -66 9 -90 38 -44 52 -51 186 -13 259 38 73 114 89 255 55 22 -5 27 -1 43 38 10 24 15 50 12 58 -9 23 -86 39 -189 39 -84 0 -99 -3 -154 -31z m247 9 c87 -15 94 -21 73 -61 -9 -18 -18 -33 -18 -35 -1 -2 -30 4 -65 13 -79 21 -135 8 -185 -42 -45 -45 -64 -93 -64 -163 0 -127 59 -200 164 -200 73 0 76 3 76 81 0 65 -1 69 -25 75 -14 3 -36 3 -50 0 -24 -6 -25 -4 -25 34 l0 40 105 0 105 0 0 -144 0 -144 -44 -11 c-63 -16 -213 -14 -272 4 -93 27 -142 104 -152 238 -8 120 10 180 73 243 44 44 61 54 116 67 80 19 106 20 188 5z"/>
</g>
</g>
  <g id="id13:id13" transform="matrix(1.25,0,0,1.25,0.0,0.0)"><g transform="translate(0.000000,82.400000) scale(0.040000,-0.040000)" fill="#153268" stroke="none">
<path d="M1516 2045 c-10 -8 -80 -49 -155 -91 -75 -43 -139 -82 -143 -88 -4 -6 -8 -120 -8 -253 l0 -243 -121 0 c-142 0 -175 -11 -208 -70 -12 -22 -27 -40 -32 -40 -5 0 -21 -11 -34 -25 -23 -22 -25 -32 -25 -117 0 -103 9 -127 60 -153 28 -14 48 -50 36 -63 -4 -3 -19 7 -34 21 l-28 27 -177 0 -177 0 -54 -57 c-166 -178 -346 -379 -346 -386 0 -16 32 -19 49 -3 10 9 21 16 24 16 4 0 6 -102 5 -227 l-3 -228 -73 -3 c-69 -3 -73 -4 -70 -25 l3 -22 1075 -3 c591 -1 1085 0 1098 3 13 3 22 13 22 25 0 18 -7 20 -65 20 l-65 0 0 859 0 859 -242 141 c-146 85 -251 141 -267 141 -14 0 -35 -7 -45 -15z m243 -135 c105 -60 208 -121 231 -135 l40 -26 -2 -842 -3 -842 -207 -3 -208 -2 0 413 c0 308 -3 416 -12 425 -7 7 -34 12 -60 12 l-49 0 15 27 c12 24 19 27 57 25 77 -4 99 31 99 156 0 86 -1 91 -30 122 -38 41 -42 105 -8 151 21 28 21 32 7 57 -29 52 -119 34 -119 -23 0 -12 9 -34 21 -48 15 -20 19 -38 17 -69 -4 -53 -18 -57 -43 -11 -29 53 -74 73 -168 73 l-77 0 2 237 3 237 145 87 c80 48 148 88 152 88 4 1 92 -48 197 -109z m-161 -487 c5 -17 -26 -29 -40 -15 -6 6 -7 15 -3 22 9 14 37 9 43 -7z m-143 -128 c24 -23 25 -28 25 -175 l0 -152 -29 -29 -29 -29 -139 -2 c-76 -1 -181 -1 -233 1 -87 2 -97 5 -117 27 -22 24 -23 34 -23 175 0 145 6 183 34 201 6 4 118 8 249 8 l238 0 24 -25z m120 -76 c4 -6 13 -8 20 -5 18 6 25 -25 25 -112 0 -57 -3 -74 -16 -79 -26 -10 -35 17 -32 95 2 39 0 72 -4 72 -5 0 -8 -35 -8 -77 0 -54 4 -81 15 -93 14 -15 13 -17 -2 -17 -10 0 -26 7 -35 15 -25 21 -26 167 -1 194 18 21 29 23 38 7z m-705 -104 c0 -83 -3 -105 -14 -105 -8 0 -17 7 -20 16 -10 26 -7 154 4 175 22 40 30 17 30 -86z m31 -312 c46 -54 114 -132 151 -174 38 -42 68 -79 68 -82 0 -4 -60 -7 -133 -7 l-133 0 -154 172 c-85 95 -156 176 -158 180 -2 4 59 8 136 8 l139 0 84 -97z m-371 25 c25 -29 84 -96 132 -149 l87 -96 1 -259 1 -259 -273 1 -273 1 -3 259 -2 259 132 147 c73 81 138 147 143 147 6 0 30 -23 55 -51z m1038 -364 c2 -317 0 -403 -10 -405 -7 -2 -89 -2 -183 1 l-170 5 -2 233 -1 233 -28 37 c-16 20 -53 64 -84 97 -72 80 -154 176 -158 186 -4 9 189 15 463 14 l170 0 3 -401z m-743 36 c4 -6 68 -10 161 -10 l154 0 0 -215 0 -215 -165 2 -166 3 -2 223 c-2 205 1 239 18 212z"/>
<path d="M1020 1192 c-28 -22 -22 -65 11 -83 52 -28 105 46 59 83 -12 10 -28 18 -35 18 -7 0 -23 -8 -35 -18z"/>
<path d="M1317 1192 c-23 -26 -21 -58 5 -76 29 -21 51 -20 71 2 22 24 21 55 -1 75 -24 22 -55 21 -75 -1z"/>
<path d="M1256 1035 c-21 -32 -70 -34 -103 -3 -29 27 -52 13 -33 -21 13 -25 48 -41 90 -41 38 0 96 50 87 73 -9 24 -22 21 -41 -8z"/>
<path d="M398 493 c12 -2 30 -2 40 0 9 3 -1 5 -23 4 -22 0 -30 -2 -17 -4z"/>
<path d="M528 493 c12 -2 32 -2 45 0 12 2 2 4 -23 4 -25 0 -35 -2 -22 -4z"/>
<path d="M464 456 c-8 -34 -1 -61 16 -61 8 0 16 8 18 18 5 25 -6 67 -18 67 -5 0 -12 -11 -16 -24z"/>
<path d="M343 430 c0 -25 2 -35 4 -22 2 12 2 32 0 45 -2 12 -4 2 -4 -23z"/>
<path d="M611 431 c-1 -32 2 -42 10 -34 7 7 7 21 1 44 l-10 34 -1 -44z"/>
<path d="M360 390 c0 -5 5 -10 11 -10 5 0 7 5 4 10 -3 6 -8 10 -11 10 -2 0 -4 -4 -4 -10z"/>
<path d="M585 390 c-3 -5 -1 -10 4 -10 6 0 11 5 11 10 0 6 -2 10 -4 10 -3 0 -8 -4 -11 -10z"/>
<path d="M388 363 c12 -2 32 -2 45 0 12 2 2 4 -23 4 -25 0 -35 -2 -22 -4z"/>
<path d="M533 363 c15 -2 37 -2 50 0 12 2 0 4 -28 4 -27 0 -38 -2 -22 -4z"/>
<path d="M366 342 c-2 -4 12 -6 32 -4 62 6 69 10 20 11 -26 0 -49 -3 -52 -7z"/>
<path d="M523 343 c15 -2 39 -2 55 0 15 2 2 4 -28 4 -30 0 -43 -2 -27 -4z"/>
<path d="M342 320 c0 -14 2 -19 5 -12 2 6 2 18 0 25 -3 6 -5 1 -5 -13z"/>
<path d="M467 334 c-10 -11 -8 -57 3 -74 9 -13 11 -13 19 -1 20 32 1 97 -22 75z"/>
<path d="M612 310 c0 -19 2 -27 5 -17 2 9 2 25 0 35 -3 9 -5 1 -5 -18z"/>
<path d="M367 248 c2 -5 22 -8 43 -8 21 0 41 3 43 8 3 4 -17 7 -43 7 -26 0 -46 -3 -43 -7z"/>
<path d="M507 248 c2 -5 22 -8 43 -8 21 0 41 3 43 8 3 4 -17 7 -43 7 -26 0 -46 -3 -43 -7z"/>
<path d="M528 223 c12 -2 30 -2 40 0 9 3 -1 5 -23 4 -22 0 -30 -2 -17 -4z"/>
<path d="M1201 614 c0 -11 3 -14 6 -6 3 7 2 16 -1 19 -3 4 -6 -2 -5 -13z"/>
<path d="M170 1979 c-47 -21 -90 -56 -90 -72 0 -5 8 -3 18 4 15 13 16 12 3 -3 -7 -10 -17 -15 -22 -13 -14 9 -38 -50 -51 -124 -20 -116 15 -261 76 -313 60 -52 96 -63 211 -63 86 0 117 4 142 18 104 56 145 136 145 282 0 67 -5 104 -21 146 -23 61 -82 126 -102 114 -8 -5 -10 -4 -5 3 26 42 -221 59 -304 21z m217 5 c-3 -3 -12 -4 -19 -1 -8 3 -5 6 6 6 11 1 17 -2 13 -5z m-180 -10 c-3 -3 -12 -4 -19 -1 -8 3 -5 6 6 6 11 1 17 -2 13 -5z m230 0 c-3 -3 -12 -4 -19 -1 -8 3 -5 6 6 6 11 1 17 -2 13 -5z m-287 -18 c0 -2 -8 -10 -17 -17 -16 -13 -17 -12 -4 4 13 16 21 21 21 13z m375 -36 c10 -11 16 -20 13 -20 -3 0 -13 9 -23 20 -10 11 -16 20 -13 20 3 0 13 -9 23 -20z m-187 -17 c-10 -2 -28 -2 -40 0 -13 2 -5 4 17 4 22 1 32 -1 23 -4z m79 -38 c18 -19 18 -19 -5 -1 -34 29 -34 15 0 -24 19 -21 28 -27 24 -15 -4 11 -4 16 0 13 12 -12 14 -163 3 -214 -5 -27 -11 -57 -13 -67 -1 -9 -8 -23 -14 -29 -17 -17 -110 -20 -152 -6 -19 7 -38 11 -42 10 -5 -1 -7 1 -6 6 1 4 -5 27 -14 52 -9 25 -19 85 -21 134 -2 50 -1 81 3 70 7 -18 7 -18 14 3 4 13 4 28 0 34 -4 7 -3 9 3 6 10 -7 57 36 48 44 -2 3 31 5 75 4 66 0 82 -3 97 -20z m141 0 c-3 -3 -9 2 -12 12 -6 14 -5 15 5 6 7 -7 10 -15 7 -18z m-490 -16 c-6 -16 -12 -28 -14 -26 -5 5 13 57 20 57 3 0 0 -14 -6 -31z m162 27 c0 -2 -8 -10 -17 -17 -16 -13 -17 -12 -4 4 13 16 21 21 21 13z m347 -68 c-3 -8 -6 -5 -6 6 -1 11 2 17 5 13 3 -3 4 -12 1 -19z m-530 -35 c-3 -10 -5 -4 -5 12 0 17 2 24 5 18 2 -7 2 -21 0 -30z m540 -5 c-3 -8 -6 -5 -6 6 -1 11 2 17 5 13 3 -3 4 -12 1 -19z m-120 -95 c-2 -21 -4 -6 -4 32 0 39 2 55 4 38 2 -18 2 -50 0 -70z m-300 -5 c-2 -18 -4 -6 -4 27 0 33 2 48 4 33 2 -15 2 -42 0 -60z m-120 -60 c-2 -13 -4 -5 -4 17 -1 22 1 32 4 23 2 -10 2 -28 0 -40z m530 -40 c-3 -7 -5 -2 -5 12 0 14 2 19 5 13 2 -7 2 -19 0 -25z m-508 -20 c6 -18 7 -28 2 -23 -10 12 -25 55 -18 55 3 0 10 -15 16 -32z m482 -41 c-10 -9 -11 -8 -5 6 3 10 9 15 12 12 3 -3 0 -11 -7 -18z m-296 3 c3 -6 -1 -7 -9 -4 -18 7 -21 14 -7 14 6 0 13 -4 16 -10z m78 -17 c-13 -2 -33 -2 -45 0 -13 2 -3 4 22 4 25 0 35 -2 23 -4z m-178 -57 c6 -4 1 -4 -10 2 -11 6 -29 21 -40 34 -19 22 -19 22 10 -2 17 -14 35 -29 40 -34z m295 -16 c-8 -5 -19 -10 -25 -10 -5 0 -3 5 5 10 8 5 20 10 25 10 6 0 3 -5 -5 -10z m-60 -14 c8 -2 -23 -4 -70 -4 -47 0 -94 3 -104 7 -18 7 140 4 174 -3z"/>
<path d="M394 1535 c-10 -8 -14 -15 -8 -15 6 0 17 7 24 15 16 19 9 19 -16 0z"/>
<path d="M832 1975 c-29 -14 -51 -29 -48 -33 3 -5 -6 -20 -19 -32 -14 -13 -25 -20 -25 -16 0 5 -7 3 -15 -4 -18 -15 -20 -35 -3 -24 7 4 8 3 4 -5 -4 -6 -11 -9 -16 -6 -5 3 -11 1 -15 -5 -3 -5 -1 -10 4 -10 6 0 11 -8 11 -17 0 -14 -2 -15 -9 -5 -15 24 -20 -11 -17 -100 3 -66 2 -73 -4 -33 -7 45 -7 43 -4 -20 3 -75 25 -151 43 -148 5 2 8 -3 5 -10 -8 -22 55 -75 115 -98 49 -18 70 -21 166 -16 119 6 156 14 133 29 -8 5 -3 6 15 2 l27 -6 0 161 0 161 -120 0 -120 0 0 -29 c0 -16 -3 -37 -7 -47 -4 -11 -3 -15 4 -11 6 4 10 -1 9 -11 -1 -14 6 -16 38 -14 45 4 56 -7 56 -58 0 -57 -8 -62 -89 -57 -102 6 -113 19 -118 135 -3 65 0 101 12 133 9 24 17 49 18 54 5 20 19 35 27 30 5 -3 19 -1 31 5 21 12 186 20 167 9 -11 -7 14 -19 39 -19 11 0 14 7 9 28 -4 16 -3 22 2 14 11 -16 35 33 27 57 -8 25 -82 41 -188 41 -77 0 -101 -4 -145 -25z m105 9 c-3 -3 -12 -4 -19 -1 -8 3 -5 6 6 6 11 1 17 -2 13 -5z m120 0 c-3 -3 -12 -4 -19 -1 -8 3 -5 6 6 6 11 1 17 -2 13 -5z m-170 -10 c-3 -3 -12 -4 -19 -1 -8 3 -5 6 6 6 11 1 17 -2 13 -5z m226 -1 c-7 -2 -19 -2 -25 0 -7 3 -2 5 12 5 14 0 19 -2 13 -5z m-100 -70 c-7 -2 -21 -2 -30 0 -10 3 -4 5 12 5 17 0 24 -2 18 -5z m-196 -250 c-2 -21 -4 -4 -4 37 0 41 2 58 4 38 2 -21 2 -55 0 -75z m348 -68 l1 -140 -3 137 -4 137 -107 4 -107 3 110 0 110 -1 0 -140z m-147 58 c-10 -2 -26 -2 -35 0 -10 3 -2 5 17 5 19 0 27 -2 18 -5z m-321 -55 c-3 -7 -5 -2 -5 12 0 14 2 19 5 13 2 -7 2 -19 0 -25z m69 -120 l29 -33 -32 29 c-31 28 -38 36 -30 36 2 0 16 -15 33 -32z m242 25 c-15 -2 -42 -2 -60 0 -18 2 -6 4 27 4 33 0 48 -2 33 -4z m42 -87 c8 -2 -25 -4 -75 -4 -49 0 -99 3 -109 7 -18 7 151 4 184 -3z m67 8 c-3 -3 -12 -4 -19 -1 -8 3 -5 6 6 6 11 1 17 -2 13 -5z"/>
<path d="M750 1925 c-20 -24 -6 -28 15 -5 10 11 13 20 8 20 -6 0 -16 -7 -23 -15z"/>
<path d="M840 1572 c0 -5 12 -19 27 -33 l26 -24 -23 33 c-25 33 -30 38 -30 24z"/>
</g>
</g>
  <g id="id14:id14" transform="matrix(1.25,0,0,1.25,0.0,0.0)"><g transform="translate(0.000000,82.400000) scale(0.040000,-0.040000)" fill="#242c33" stroke="none">
<path d="M1516 2045 c-10 -8 -80 -49 -155 -91 -75 -43 -139 -82 -143 -88 -4 -6 -8 -120 -8 -253 l0 -243 -121 0 c-142 0 -175 -11 -208 -70 -12 -22 -27 -40 -32 -40 -5 0 -21 -11 -34 -25 -23 -22 -25 -32 -25 -117 0 -103 9 -127 60 -153 28 -14 48 -50 36 -63 -4 -3 -19 7 -34 21 l-28 27 -177 0 -177 0 -54 -57 c-166 -178 -346 -379 -346 -386 0 -16 32 -19 49 -3 10 9 21 16 24 16 4 0 6 -102 5 -227 l-3 -228 -73 -3 c-69 -3 -73 -4 -70 -25 l3 -22 1075 -3 c591 -1 1085 0 1098 3 13 3 22 13 22 25 0 18 -7 20 -65 20 l-65 0 0 859 0 859 -242 141 c-146 85 -251 141 -267 141 -14 0 -35 -7 -45 -15z m243 -135 c105 -60 208 -121 231 -135 l40 -26 -2 -842 -3 -842 -207 -3 -208 -2 0 413 c0 308 -3 416 -12 425 -7 7 -34 12 -60 12 l-49 0 15 27 c12 24 19 27 57 25 77 -4 99 31 99 156 0 86 -1 91 -30 122 -38 41 -42 105 -8 151 21 28 21 32 7 57 -29 52 -119 34 -119 -23 0 -12 9 -34 21 -48 15 -20 19 -38 17 -69 -4 -53 -18 -57 -43 -11 -29 53 -74 73 -168 73 l-77 0 2 237 3 237 145 87 c80 48 148 88 152 88 4 1 92 -48 197 -109z m-161 -487 c5 -17 -26 -29 -40 -15 -6 6 -7 15 -3 22 9 14 37 9 43 -7z m-143 -128 c24 -23 25 -28 25 -175 l0 -152 -29 -29 -29 -29 -139 -2 c-76 -1 -181 -1 -233 1 -87 2 -97 5 -117 27 -22 24 -23 34 -23 175 0 145 6 183 34 201 6 4 118 8 249 8 l238 0 24 -25z m120 -76 c4 -6 13 -8 20 -5 18 6 25 -25 25 -112 0 -57 -3 -74 -16 -79 -26 -10 -35 17 -32 95 2 39 0 72 -4 72 -5 0 -8 -36 -8 -79 0 -70 3 -82 21 -95 l22 -15 -24 1 c-48 3 -59 24 -59 111 0 61 4 85 17 99 18 21 29 23 38 7z m-705 -104 c0 -83 -3 -105 -14 -105 -8 0 -17 7 -20 16 -10 26 -7 154 4 175 22 40 30 17 30 -86z m31 -312 c46 -54 114 -132 151 -174 38 -42 68 -79 68 -82 0 -4 -59 -7 -132 -7 l-131 0 -72 75 c-39 42 -69 77 -68 79 2 2 -16 21 -41 44 -24 22 -42 42 -40 44 2 2 -19 26 -46 53 -28 27 -50 53 -50 57 0 4 62 8 139 8 l138 0 84 -97z m-278 -70 l137 -151 0 -261 0 -261 -285 0 -285 0 0 263 0 262 138 152 c75 84 142 151 147 150 6 -1 72 -70 148 -154z m945 -270 l-3 -408 -155 -3 c-85 -2 -170 0 -187 3 l-33 6 0 239 0 240 -107 121 c-162 183 -162 183 -163 197 0 9 71 12 325 12 l325 0 -2 -407z m-743 37 c4 -6 68 -10 161 -10 l154 0 0 -215 0 -215 -165 2 -166 3 -2 223 c-2 205 1 239 18 212z"/>
<path d="M1020 1192 c-28 -22 -22 -65 11 -83 52 -28 105 46 59 83 -12 10 -28 18 -35 18 -7 0 -23 -8 -35 -18z"/>
<path d="M1317 1192 c-23 -26 -21 -58 5 -76 29 -21 51 -20 71 2 22 24 21 55 -1 75 -24 22 -55 21 -75 -1z"/>
<path d="M1256 1035 c-21 -32 -70 -34 -103 -3 -29 27 -52 13 -33 -21 13 -25 48 -41 90 -41 38 0 96 50 87 73 -9 24 -22 21 -41 -8z"/>
<path d="M462 430 c0 -19 2 -27 5 -17 2 9 2 25 0 35 -3 9 -5 1 -5 -18z"/>
<path d="M492 430 c0 -19 2 -27 5 -17 2 9 2 25 0 35 -3 9 -5 1 -5 -18z"/>
<path d="M360 390 c0 -5 5 -10 11 -10 5 0 7 5 4 10 -3 6 -8 10 -11 10 -2 0 -4 -4 -4 -10z"/>
<path d="M585 390 c-3 -5 -1 -10 4 -10 6 0 11 5 11 10 0 6 -2 10 -4 10 -3 0 -8 -4 -11 -10z"/>
<path d="M366 342 c-2 -4 12 -6 32 -4 62 6 69 10 20 11 -26 0 -49 -3 -52 -7z"/>
<path d="M523 343 c15 -2 39 -2 55 0 15 2 2 4 -28 4 -30 0 -43 -2 -27 -4z"/>
<path d="M462 300 c0 -19 2 -27 5 -17 2 9 2 25 0 35 -3 9 -5 1 -5 -18z"/>
<path d="M491 314 c0 -11 3 -14 6 -6 3 7 2 16 -1 19 -3 4 -6 -2 -5 -13z"/>
<path d="M367 248 c2 -5 22 -8 43 -8 21 0 41 3 43 8 3 4 -17 7 -43 7 -26 0 -46 -3 -43 -7z"/>
<path d="M507 248 c2 -5 22 -8 43 -8 21 0 41 3 43 8 3 4 -17 7 -43 7 -26 0 -46 -3 -43 -7z"/>
<path d="M163 1976 c-57 -27 -106 -84 -123 -145 -38 -135 -8 -311 64 -373 60 -52 96 -63 211 -63 86 0 117 4 142 18 104 56 145 136 145 282 0 114 -25 187 -82 239 -60 54 -99 66 -209 66 -80 0 -104 -4 -148 -24z m310 -19 c89 -53 122 -135 114 -285 -5 -106 -20 -150 -65 -198 -47 -51 -88 -67 -183 -72 -142 -7 -220 29 -269 124 -21 41 -26 66 -28 153 -5 124 8 175 55 231 59 68 96 81 234 76 84 -2 103 -7 142 -29z"/>
<path d="M245 1881 c-53 -32 -68 -67 -73 -162 -5 -91 6 -143 36 -175 65 -71 190 -53 232 31 8 17 16 67 18 111 5 100 -18 162 -70 194 -41 25 -103 26 -143 1z m161 -36 c37 -41 50 -112 39 -198 -10 -70 -27 -101 -69 -121 -42 -20 -76 -20 -122 -1 -49 20 -73 78 -74 171 0 79 16 128 52 160 32 30 47 34 98 29 36 -4 51 -12 76 -40z"/>
<path d="M820 1968 c-42 -23 -73 -48 -97 -80 -19 -27 -31 -48 -26 -47 4 0 24 22 44 48 48 63 110 92 209 98 76 5 186 -9 203 -26 6 -6 3 -24 -8 -46 -15 -34 -20 -36 -48 -31 -121 24 -165 17 -220 -33 -41 -37 -57 -83 -57 -163 0 -81 16 -124 59 -161 28 -23 42 -27 96 -27 70 0 75 5 75 70 0 61 -7 70 -54 70 -24 0 -45 2 -47 4 -3 3 -3 23 -1 46 l4 41 107 -3 106 -3 0 -145 0 -145 -29 -14 c-16 -7 -74 -16 -131 -18 -212 -11 -303 63 -324 265 -7 67 -9 70 -10 27 -1 -64 23 -158 51 -199 33 -45 56 -63 118 -87 48 -19 68 -21 165 -16 61 3 125 12 143 19 l32 12 0 158 0 158 -119 0 -119 0 -4 -42 c-7 -62 4 -78 48 -71 42 7 54 -5 54 -57 0 -57 -10 -64 -82 -57 -55 5 -66 9 -90 38 -44 52 -51 186 -13 259 38 73 114 89 255 55 22 -5 27 -1 43 38 10 24 15 50 12 58 -9 23 -86 39 -189 39 -87 0 -99 -3 -156 -32z"/>
<path d="M686 1815 c-3 -9 -6 -29 -5 -43 1 -22 3 -19 10 12 10 40 6 60 -5 31z"/>
</g>
</g>
  <g id="id15:id15" transform="matrix(1.25,0,0,1.25,0.0,0.0)"><g transform="translate(0.000000,82.400000) scale(0.040000,-0.040000)" fill="#07090b" stroke="none">
<path d="M1516 2045 c-10 -8 -80 -49 -155 -91 -75 -43 -139 -82 -143 -88 -4 -6 -8 -120 -8 -253 l0 -243 -121 0 c-142 0 -175 -11 -208 -70 -12 -22 -27 -40 -32 -40 -5 0 -21 -11 -34 -25 -23 -22 -25 -32 -25 -117 0 -103 9 -127 60 -153 28 -14 48 -50 36 -63 -4 -3 -19 7 -34 21 l-28 27 -177 0 -177 0 -54 -57 c-166 -178 -346 -379 -346 -386 0 -16 32 -19 49 -3 10 9 21 16 24 16 4 0 6 -102 5 -227 l-3 -228 -73 -3 c-69 -3 -73 -4 -70 -25 l3 -22 1075 -3 c591 -1 1085 0 1098 3 13 3 22 13 22 25 0 18 -7 20 -65 20 l-65 0 0 859 0 859 -242 141 c-146 85 -251 141 -267 141 -14 0 -35 -7 -45 -15z m243 -135 c105 -60 208 -121 231 -135 l40 -26 -2 -842 -3 -842 -207 -3 -208 -2 0 413 c0 308 -3 416 -12 425 -7 7 -34 12 -60 12 l-49 0 15 27 c12 24 19 27 57 25 77 -4 99 31 99 156 0 86 -1 91 -30 122 -38 41 -42 105 -8 151 21 28 21 32 7 57 -29 52 -119 34 -119 -23 0 -12 9 -34 21 -48 15 -20 19 -38 17 -69 -4 -53 -18 -57 -43 -11 -29 53 -74 73 -168 73 l-77 0 2 237 3 237 145 87 c80 48 148 88 152 88 4 1 92 -48 197 -109z m-161 -487 c5 -17 -26 -29 -40 -15 -6 6 -7 15 -3 22 9 14 37 9 43 -7z m-143 -128 c24 -23 25 -28 25 -175 l0 -152 -29 -29 -29 -29 -139 -2 c-76 -1 -181 -1 -233 1 -87 2 -97 5 -117 27 -22 24 -23 34 -23 175 0 145 6 183 34 201 6 4 118 8 249 8 l238 0 24 -25z m120 -76 c4 -6 13 -8 20 -5 18 6 25 -25 25 -112 0 -57 -3 -74 -16 -79 -26 -10 -35 17 -32 95 2 39 0 72 -4 72 -5 0 -8 -36 -8 -79 0 -70 3 -82 21 -95 l22 -15 -24 1 c-48 3 -59 24 -59 111 0 61 4 85 17 99 18 21 29 23 38 7z m-705 -104 c0 -83 -3 -105 -14 -105 -8 0 -17 7 -20 16 -10 26 -7 154 4 175 22 40 30 17 30 -86z m31 -312 c46 -54 114 -132 151 -174 38 -42 68 -79 68 -82 0 -4 -59 -7 -132 -7 l-131 0 -72 75 c-39 42 -69 77 -68 79 2 2 -16 21 -41 44 -24 22 -42 42 -40 44 2 2 -19 26 -46 53 -28 27 -50 53 -50 57 0 4 62 8 139 8 l138 0 84 -97z m-278 -70 l137 -151 0 -261 0 -261 -285 0 -285 0 0 263 0 262 138 152 c75 84 142 151 147 150 6 -1 72 -70 148 -154z m945 -270 l-3 -408 -155 -3 c-85 -2 -170 0 -187 3 l-33 6 0 239 0 240 -107 121 c-162 183 -162 183 -163 197 0 9 71 12 325 12 l325 0 -2 -407z m-743 37 c4 -6 68 -10 161 -10 l154 0 0 -215 0 -215 -165 2 -166 3 -2 223 c-2 205 1 239 18 212z"/>
<path d="M1020 1192 c-28 -22 -22 -65 11 -83 52 -28 105 46 59 83 -12 10 -28 18 -35 18 -7 0 -23 -8 -35 -18z"/>
<path d="M1317 1192 c-23 -26 -21 -58 5 -76 29 -21 51 -20 71 2 22 24 21 55 -1 75 -24 22 -55 21 -75 -1z"/>
<path d="M1256 1035 c-21 -32 -70 -34 -103 -3 -29 27 -52 13 -33 -21 13 -25 48 -41 90 -41 38 0 96 50 87 73 -9 24 -22 21 -41 -8z"/>
<path d="M462 430 c0 -19 2 -27 5 -17 2 9 2 25 0 35 -3 9 -5 1 -5 -18z"/>
<path d="M492 430 c0 -19 2 -27 5 -17 2 9 2 25 0 35 -3 9 -5 1 -5 -18z"/>
<path d="M360 390 c0 -5 5 -10 11 -10 5 0 7 5 4 10 -3 6 -8 10 -11 10 -2 0 -4 -4 -4 -10z"/>
<path d="M585 390 c-3 -5 -1 -10 4 -10 6 0 11 5 11 10 0 6 -2 10 -4 10 -3 0 -8 -4 -11 -10z"/>
<path d="M366 342 c-2 -4 12 -6 32 -4 62 6 69 10 20 11 -26 0 -49 -3 -52 -7z"/>
<path d="M523 343 c15 -2 39 -2 55 0 15 2 2 4 -28 4 -30 0 -43 -2 -27 -4z"/>
<path d="M462 300 c0 -19 2 -27 5 -17 2 9 2 25 0 35 -3 9 -5 1 -5 -18z"/>
<path d="M491 314 c0 -11 3 -14 6 -6 3 7 2 16 -1 19 -3 4 -6 -2 -5 -13z"/>
<path d="M367 248 c2 -5 22 -8 43 -8 21 0 41 3 43 8 3 4 -17 7 -43 7 -26 0 -46 -3 -43 -7z"/>
<path d="M507 248 c2 -5 22 -8 43 -8 21 0 41 3 43 8 3 4 -17 7 -43 7 -26 0 -46 -3 -43 -7z"/>
<path d="M163 1976 c-57 -27 -106 -84 -123 -145 -38 -135 -8 -311 64 -373 60 -52 96 -63 211 -63 86 0 117 4 142 18 104 56 145 136 145 282 0 114 -25 187 -82 239 -60 54 -99 66 -209 66 -80 0 -104 -4 -148 -24z m310 -19 c89 -53 122 -135 114 -285 -5 -106 -20 -150 -65 -198 -47 -51 -88 -67 -183 -72 -142 -7 -220 29 -269 124 -21 41 -26 66 -28 153 -5 124 8 175 55 231 59 68 96 81 234 76 84 -2 103 -7 142 -29z"/>
<path d="M245 1881 c-53 -32 -68 -67 -73 -162 -5 -91 6 -143 36 -175 65 -71 190 -53 232 31 8 17 16 67 18 111 5 100 -18 162 -70 194 -41 25 -103 26 -143 1z m161 -36 c37 -41 50 -112 39 -198 -10 -70 -27 -101 -69 -121 -42 -20 -76 -20 -122 -1 -49 20 -73 78 -74 171 0 79 16 128 52 160 32 30 47 34 98 29 36 -4 51 -12 76 -40z"/>
<path d="M820 1968 c-42 -23 -73 -48 -97 -80 -19 -27 -31 -48 -26 -47 4 0 24 22 44 48 48 63 110 92 209 98 76 5 186 -9 203 -26 6 -6 3 -24 -8 -46 -15 -34 -20 -36 -48 -31 -121 24 -165 17 -220 -33 -41 -37 -57 -83 -57 -163 0 -81 16 -124 59 -161 28 -23 42 -27 96 -27 70 0 75 5 75 70 0 61 -7 70 -54 70 -24 0 -45 2 -47 4 -3 3 -3 23 -1 46 l4 41 107 -3 106 -3 0 -145 0 -145 -29 -14 c-16 -7 -74 -16 -131 -18 -212 -11 -303 63 -324 265 -7 67 -9 70 -10 27 -1 -64 23 -158 51 -199 33 -45 56 -63 118 -87 48 -19 68 -21 165 -16 61 3 125 12 143 19 l32 12 0 158 0 158 -119 0 -119 0 -4 -42 c-7 -62 4 -78 48 -71 42 7 54 -5 54 -57 0 -57 -10 -64 -82 -57 -55 5 -66 9 -90 38 -44 52 -51 186 -13 259 38 73 114 89 255 55 22 -5 27 -1 43 38 10 24 15 50 12 58 -9 23 -86 39 -189 39 -87 0 -99 -3 -156 -32z"/>
<path d="M686 1815 c-3 -9 -6 -29 -5 -43 1 -22 3 -19 10 12 10 40 6 60 -5 31z"/>
</g>
</g>
</svg>
